<svg width="50" height="50" viewBox="0 0 50 50" fill="none" xmlns="http://www.w3.org/2000/svg">
<g clip-path="url(#clip0_13_799)">
<path d="M25.3379 8C34.9126 8.00026 42.6748 15.7622 42.6748 25.3369C42.6748 26.339 42.5884 27.3209 42.4248 28.2764L44.7549 29.2246C45.5039 29.5294 45.5998 30.5509 44.9209 30.9902L37.3262 35.9062C36.7429 36.2834 35.9617 35.9654 35.8076 35.2881L33.8027 26.4668C33.6235 25.6782 34.4052 25.0136 35.1543 25.3184L37.6328 26.3262C37.6589 25.9998 37.6748 25.67 37.6748 25.3369C37.6748 18.5236 32.1512 13.0003 25.3379 13C18.5244 13 13.001 18.5234 13.001 25.3369C13.001 32.1504 18.5244 37.6738 25.3379 37.6738C26.4049 37.6738 27.4402 37.5379 28.4277 37.2832L32.8086 40.9844C30.5462 42.0665 28.0131 42.6738 25.3379 42.6738C15.763 42.6738 8.00007 34.9118 8 25.3369C8.00003 15.762 15.763 8.00003 25.3379 8Z" fill="black"/>
</g>
<defs>
<clipPath id="clip0_13_799">
<rect width="38" height="35" fill="white" transform="translate(8 8)"/>
</clipPath>
</defs>
</svg>
