<svg width="38" height="35" viewBox="0 0 38 35" fill="none" xmlns="http://www.w3.org/2000/svg">
<path d="M17.3379 0C26.9126 0.000263883 34.6748 7.76216 34.6748 17.3369C34.6748 18.339 34.5884 19.3209 34.4248 20.2764L36.7549 21.2246C37.5039 21.5294 37.5998 22.5509 36.9209 22.9902L29.3262 27.9062C28.7429 28.2834 27.9617 27.9654 27.8076 27.2881L25.8027 18.4668C25.6235 17.6782 26.4052 17.0136 27.1543 17.3184L29.6328 18.3262C29.6589 17.9998 29.6748 17.67 29.6748 17.3369C29.6748 10.5236 24.1512 5.00026 17.3379 5C10.5244 5.00003 5.00101 10.5234 5.00098 17.3369C5.00104 24.1504 10.5244 29.6738 17.3379 29.6738C18.4049 29.6738 19.4402 29.5379 20.4277 29.2832L24.8086 32.9844C22.5462 34.0665 20.0131 34.6738 17.3379 34.6738C7.76301 34.6738 6.59738e-05 26.9118 0 17.3369C3.09242e-05 7.76201 7.76299 3.09262e-05 17.3379 0Z" fill="currentColor"/>
</svg>
