<svg width="50" height="50" viewBox="0 0 50 50" fill="none" xmlns="http://www.w3.org/2000/svg">
<g clip-path="url(#clip0_13_803)">
<path d="M34.7655 39.6572C36.761 40.5455 39.0988 39.6478 39.9872 37.6523C40.8755 35.657 39.9786 33.3191 37.9833 32.4307L22.3359 25.4658L38.455 18.29C40.4502 17.4016 41.3471 15.0637 40.4589 13.0684C39.5705 11.073 37.2327 10.1753 35.2372 11.0635L11.8193 21.4883C11.1897 21.7686 10.6696 22.1934 10.2802 22.7061C9.89288 23.0615 9.57011 23.4999 9.3427 24.0107C8.45458 26.0062 9.35214 28.3441 11.3476 29.2324L34.7655 39.6572Z" fill="black"/>
</g>
<defs>
<clipPath id="clip0_13_803">
<rect width="32" height="30" fill="white" transform="matrix(-1 0 0 1 41 10)"/>
</clipPath>
</defs>
</svg>
