<svg width="59" height="37" viewBox="0 0 59 37" fill="none" xmlns="http://www.w3.org/2000/svg">
<path d="M57.6186 6.90531C58.0145 6.64327 58.123 6.10993 57.8609 5.71406V5.71406C57.5989 5.31819 57.0655 5.2097 56.6697 5.47173L54.4741 6.92505C54.0782 7.18708 53.9697 7.72042 54.2318 8.1163V8.1163C54.4938 8.51217 55.0272 8.62066 55.423 8.35862L57.6186 6.90531Z" fill="#1A1A19"/>
<path d="M55.7035 3.76376C55.9912 3.38614 55.9183 2.84677 55.5407 2.55906V2.55906C55.1631 2.27134 54.6237 2.34422 54.336 2.72183L52.7402 4.81617C52.4525 5.19379 52.5254 5.73315 52.903 6.02087V6.02087C53.2806 6.30859 53.82 6.23571 54.1077 5.85809L55.7035 3.76376Z" fill="#1A1A19"/>
<path d="M0.716788 6.90531C0.320917 6.64327 0.212424 6.10993 0.474462 5.71406V5.71406C0.7365 5.31819 1.26984 5.2097 1.66571 5.47173L3.86128 6.92505C4.25715 7.18708 4.36565 7.72042 4.10361 8.1163V8.1163C3.84157 8.51217 3.30823 8.62066 2.91236 8.35862L0.716788 6.90531Z" fill="#1A1A19"/>
<path d="M2.63192 3.76376C2.3442 3.38614 2.41708 2.84677 2.7947 2.55906V2.55906C3.17232 2.27134 3.71168 2.34422 3.9994 2.72183L5.59514 4.81617C5.88286 5.19379 5.80998 5.73315 5.43236 6.02087V6.02087C5.05474 6.30859 4.51538 6.23571 4.22766 5.85809L2.63192 3.76376Z" fill="#1A1A19"/>
<path d="M30.4872 33.8387C30.4872 35.3659 31.4776 36.6039 32.6993 36.6039C33.9211 36.6039 34.9115 35.3659 34.9115 33.8387C34.9115 32.3116 33.9211 31.0735 32.6993 31.0735C31.4776 31.0735 30.4872 32.3116 30.4872 33.8387Z" fill="#1A1A19"/>
<path d="M57.0327 15.8653C57.0327 24.6275 50.9742 31.7307 43.5005 31.7307C36.0269 31.7307 29.9683 24.6275 29.9683 15.8653C29.9683 7.10315 36.0269 0 43.5005 0C50.9742 0 57.0327 7.10315 57.0327 15.8653Z" fill="white"/>
<path d="M55.168 16.9191C55.168 22.8465 51.1986 27.6516 46.3021 27.6516C41.4055 27.6516 37.4361 22.8465 37.4361 16.9191C37.4361 10.9918 41.4055 6.18671 46.3021 6.18671C51.1986 6.18671 55.168 10.9918 55.168 16.9191Z" fill="#1A1A19"/>
<path d="M28.7915 15.9689C28.7915 24.731 22.7329 31.8342 15.2593 31.8342C7.78569 31.8342 1.72711 24.731 1.72711 15.9689C1.72711 7.20667 7.78569 0.103516 15.2593 0.103516C22.7329 0.103516 28.7915 7.20667 28.7915 15.9689Z" fill="white"/>
<path d="M26.9275 17.0239C26.9275 22.9513 22.9581 27.7564 18.0616 27.7564C13.1651 27.7564 9.19568 22.9513 9.19568 17.0239C9.19568 11.0966 13.1651 6.2915 18.0616 6.2915C22.9581 6.2915 26.9275 11.0966 26.9275 17.0239Z" fill="#1A1A19"/>
</svg>
