<svg width="57" height="48" viewBox="0 0 57 48" fill="none" xmlns="http://www.w3.org/2000/svg">
<path d="M30.7856 18.9506C31.3983 28.5501 25.2519 36.7559 17.0572 37.2789C8.86259 37.8019 1.72285 30.444 1.11019 20.8446C0.497519 11.2451 6.64393 3.03927 14.8386 2.51627C23.0332 1.99326 30.173 9.35117 30.7856 18.9506Z" fill="white"/>
<path d="M55.5632 20.3489C56.0712 28.3095 50.9788 35.114 44.189 35.5474C37.3991 35.9807 31.483 29.8788 30.9749 21.9182C30.4669 13.9577 35.5593 7.15316 42.3491 6.71981C49.139 6.28646 55.0551 12.3884 55.5632 20.3489Z" fill="white"/>
<path d="M22.9668 16.4705C23.3852 23.0262 19.1692 28.6314 13.55 28.99C7.93079 29.3487 3.03635 24.3249 2.61794 17.7692C2.19954 11.2135 6.4156 5.60832 12.0348 5.24968C17.654 4.89105 22.5484 9.91478 22.9668 16.4705Z" fill="#1A1A19"/>
<path d="M54.0577 23.4252C54.4014 28.8103 51.0737 33.4059 46.6252 33.6898C42.1767 33.9737 38.2918 29.8384 37.9481 24.4534C37.6045 19.0683 40.9321 14.4727 45.3806 14.1888C49.8291 13.9049 53.714 18.0402 54.0577 23.4252Z" fill="#1A1A19"/>
<path d="M36.7571 40.0481C37.2448 41.6313 36.3561 43.311 34.7728 43.7988C33.3463 44.2384 31.9895 44.6807 30.4327 44.5917C29.0038 44.51 27.5245 43.9807 25.7212 43.3576C24.1552 42.8166 23.3246 41.1081 23.8657 39.5421C24.4067 37.9761 26.1148 37.1447 27.6808 37.6857C29.8167 38.4237 30.3743 38.5788 30.7758 38.6017C31.0494 38.6173 31.3182 38.584 33.0063 38.0638C34.5896 37.5761 36.2692 38.4648 36.7571 40.0481Z" fill="#1A1A19"/>
</svg>
