<svg width="54" height="40" viewBox="0 0 54 40" fill="none" xmlns="http://www.w3.org/2000/svg">
<path d="M52.7147 22.1166C53.1546 22.4078 53.2752 23.0005 52.984 23.4404V23.4404C52.6928 23.8804 52.1001 24.0009 51.6601 23.7097L49.2202 22.0947C48.7803 21.8034 48.6597 21.2107 48.9509 20.7708V20.7708C49.2421 20.3309 49.8348 20.2103 50.2747 20.5015L52.7147 22.1166Z" fill="#1A1A19"/>
<path d="M50.5868 25.6086C50.9065 26.0282 50.8255 26.6276 50.4059 26.9474V26.9474C49.9862 27.2671 49.3868 27.1861 49.0671 26.7665L47.2937 24.439C46.974 24.0194 47.055 23.42 47.4746 23.1002V23.1002C47.8943 22.7805 48.4937 22.8615 48.8134 23.2811L50.5868 25.6086Z" fill="#1A1A19"/>
<path d="M0.796571 23.2291C0.356637 23.5203 0.236068 24.113 0.527274 24.553V24.553C0.818479 24.9929 1.41118 25.1135 1.85112 24.8223L4.29107 23.2072C4.73101 22.916 4.85158 22.3233 4.56037 21.8834V21.8834C4.26917 21.4434 3.67646 21.3229 3.23653 21.6141L0.796571 23.2291Z" fill="#1A1A19"/>
<path d="M2.92444 26.7209C2.60469 27.1405 2.68568 27.7399 3.10533 28.0597V28.0597C3.52498 28.3794 4.12438 28.2984 4.44413 27.8788L6.21748 25.5513C6.53723 25.1317 6.45624 24.5323 6.03659 24.2125V24.2125C5.61694 23.8928 5.01754 23.9738 4.6978 24.3934L2.92444 26.7209Z" fill="#1A1A19"/>
<path d="M21.2177 36.7434C22.0126 37.2634 22.8688 37.757 23.9074 37.864C24.9217 37.9684 25.8489 37.6709 26.6568 37.3937C27.7014 37.0352 28.2581 35.8975 27.8997 34.8528C27.5413 33.8081 26.4034 33.2517 25.3588 33.6099C24.5133 33.9 24.3549 33.8886 24.3178 33.8848C24.306 33.8836 24.1428 33.8767 23.4076 33.3958C22.4834 32.7911 21.2443 33.0503 20.6395 33.9744C20.0348 34.8987 20.2933 36.1387 21.2177 36.7434Z" fill="#1A1A19"/>
<path d="M3.88474 4.17963C2.08107 6.79917 0.999969 10.132 0.999969 13.7607C1.00017 22.191 6.82991 29.0253 14.0205 29.0253C21.2109 29.0251 27.0398 22.1908 27.04 13.7607C27.04 8.00452 24.3225 2.99213 20.3095 0.391541L3.88474 4.17963Z" fill="white"/>
<path d="M24.4073 13.9898C24.4073 19.6926 20.5883 24.3156 15.8773 24.3156C11.1663 24.3156 7.34729 19.6926 7.34729 13.9898C7.34729 8.28707 11.1663 3.66406 15.8773 3.66406C20.5883 3.66406 24.4073 8.28707 24.4073 13.9898Z" fill="#1A1A19"/>
<path d="M49.3254 3.78809C51.1291 6.40763 52.2102 9.74043 52.2102 13.3691C52.21 21.7994 46.3802 28.6338 39.1897 28.6338C31.9993 28.6336 26.1703 21.7993 26.1701 13.3691C26.1701 7.61298 28.8877 2.60059 32.9006 0L49.3254 3.78809Z" fill="white"/>
<path d="M49.4282 13.9898C49.4282 19.6926 45.6092 24.3156 40.8982 24.3156C36.1873 24.3156 32.3683 19.6926 32.3683 13.9898C32.3683 8.28707 36.1873 3.66406 40.8982 3.66406C45.6092 3.66406 49.4282 8.28707 49.4282 13.9898Z" fill="#1A1A19"/>
</svg>
