<svg width="57" height="43" viewBox="0 0 57 43" fill="none" xmlns="http://www.w3.org/2000/svg">
<path d="M3.55566 2.49707C1.34574 5.37587 0 9.18397 0 13.3604C0.000110877 22.3362 6.21176 29.613 13.874 29.6133C21.5365 29.6133 27.7489 22.3364 27.749 13.3604C27.749 7.82443 25.386 2.93472 21.7773 0L3.55566 2.49707Z" fill="white"/>
<path d="M6.34422 13.8445C6.34422 19.9745 10.6037 24.9439 15.858 24.9439C21.1123 24.9439 25.3718 19.9745 25.3718 13.8445C25.3718 7.71443 21.1123 2.74506 15.858 2.74506C10.6037 2.74506 6.34422 7.71443 6.34422 13.8445Z" fill="#1A1A19"/>
<path d="M29.2715 8.47296C28.8568 10.0154 28.6319 11.6568 28.6318 13.3597C28.6318 22.3358 34.8443 29.6126 42.5068 29.6126C50.1692 29.6124 56.3809 22.3357 56.3809 13.3597C56.3808 10.314 55.6653 7.46409 54.4209 5.02765L29.2715 8.47296Z" fill="white"/>
<path d="M36.7119 7.45343C35.6188 9.26056 34.9747 11.4641 34.9746 13.8441C34.9746 19.9741 39.234 24.9437 44.4883 24.9437C49.7424 24.9434 54.002 19.9739 54.002 13.8441C54.0019 10.5316 52.7566 7.55931 50.7842 5.5257L36.7119 7.45343Z" fill="#1A1A19"/>
<path d="M16.5493 34.2215C16.0767 35.5188 16.7451 36.9537 18.0423 37.4264C19.5006 37.9578 20.6781 38.3336 21.9604 38.5241C23.241 38.7144 24.5087 38.7025 26.1351 38.6122C27.5135 38.5356 28.5691 37.3563 28.4928 35.9779C28.4162 34.5994 27.2364 33.543 25.8578 33.6196C24.3196 33.705 23.4606 33.6924 22.6947 33.5786C21.9303 33.465 21.1406 33.2338 19.7542 32.7286C18.457 32.256 17.0221 32.9243 16.5493 34.2215Z" fill="black"/>
</svg>
