<svg width="55" height="43" viewBox="0 0 55 43" fill="none" xmlns="http://www.w3.org/2000/svg">
<path d="M30.046 42.199C33.2406 41.7963 35.5455 41.1257 38.4361 39.3015C39.1366 38.8593 39.3459 37.9325 38.9038 37.232C38.4617 36.5316 37.5357 36.3224 36.8352 36.7643C34.3886 38.3083 32.5233 38.8638 29.6705 39.2235C28.8487 39.3272 28.2669 40.0771 28.3705 40.899C28.4742 41.7208 29.2241 42.3026 30.046 42.199Z" fill="#1A1A19"/>
<path d="M7.62939e-05 16.8149C7.62939e-05 26.1015 6.42665 33.6297 14.3542 33.6297C22.2818 33.6297 28.7084 26.1015 28.7084 16.8149C28.7084 7.52827 22.2818 0 14.3542 0C6.42665 0 7.62939e-05 7.52827 7.62939e-05 16.8149Z" fill="white"/>
<path d="M3.88792 17.3157C3.88792 23.6577 8.29471 28.799 13.7308 28.799C19.1668 28.799 23.5736 23.6577 23.5736 17.3157C23.5736 10.9736 19.1668 5.83234 13.7308 5.83234C8.29471 5.83234 3.88792 10.9736 3.88792 17.3157Z" fill="#1A1A19"/>
<path d="M54.1423 13.594C53.9046 12.2341 52.6096 11.3245 51.2496 11.5619C44.348 12.7667 39.4225 14.8437 33.2399 20.4152C32.2147 21.3396 32.1331 22.9196 33.0572 23.9451C33.9815 24.9708 35.5624 25.0531 36.5881 24.1288C42.0293 19.2255 46.0769 17.5398 52.1102 16.4867C53.4701 16.249 54.3797 14.954 54.1423 13.594Z" fill="#1A1A19"/>
</svg>
