<svg width="1349" height="202" viewBox="0 0 1349 202" fill="none" xmlns="http://www.w3.org/2000/svg">
<g filter="url(#filter0_d_11_704)">
<path d="M474.019 9.27265e-05C477.53 9.24867e-05 480.987 0.228377 484.365 0.665132C487.963 0.225721 491.616 -0.000162191 495.294 0.00106929H649.344C649.413 0.000892652 649.483 9.27312e-05 649.552 9.27265e-05H699.45C699.519 9.27312e-05 699.589 0.000892652 699.658 0.00106929H853.708C857.386 -0.000162191 874.983 2.38086e-05 874.983 2.38086e-05L1062.28 9.27265e-05C1062.34 9.27312e-05 1062.41 0.000892681 1062.48 0.00106929H1297.97C1323.84 0.00107106 1345 14.8461 1345 32.9894C1345 51.1324 1323.84 65.9767 1297.97 65.9767H1295.62C1295.62 70.9248 1297.97 75.8732 1297.97 82.4708C1297.97 118.757 1255.64 148.446 1203.9 148.446C1185.09 148.446 1168.63 145.147 1152.16 138.55C1145.11 153.394 1123.94 164.941 1098.08 164.941C1081.35 164.94 1066.44 160.253 1055.83 152.617C1042.09 166.362 1020.67 175.242 996.724 175.242C966.757 175.242 942.408 162.099 929.298 143.114C925.552 144.575 918.06 146.035 912.441 146.035C901.313 146.035 891.197 143.139 883.238 138.245C879.965 143.734 875.395 148.717 869.738 152.919C861.532 159.016 851.352 163.238 840.302 165.127C829.251 167.016 817.752 166.5 807.049 163.635C797.538 176.103 782.768 185.579 765.289 190.426C747.81 195.273 728.718 195.187 711.311 190.185C696.518 185.933 683.734 178.355 674.501 168.473C665.268 178.355 652.484 185.933 637.691 190.185C620.284 195.187 601.192 195.273 583.713 190.426C566.234 185.579 551.464 176.103 541.953 163.635C531.25 166.5 519.75 167.016 508.7 165.127C497.65 163.238 487.47 159.016 479.264 152.919C473.607 148.717 469.037 143.734 465.764 138.245C457.805 143.139 447.689 146.035 436.561 146.035C430.942 146.035 423.45 144.575 419.704 143.114C406.594 162.099 382.245 175.242 352.278 175.242C328.33 175.242 306.914 166.362 293.175 152.617C282.557 160.253 267.654 164.94 250.927 164.941C225.058 164.941 203.893 153.394 196.838 138.55C180.376 145.147 163.914 148.446 145.101 148.446C93.364 148.446 51.0343 118.757 51.0342 82.4708C51.0342 75.8732 53.3857 70.9248 53.3857 65.9767H51.0342C25.1659 65.9767 4.00033 51.1324 4 32.9894C4 14.8461 25.1657 0.00107106 51.0342 0.00106929H286.519C286.588 0.000892681 286.657 9.27312e-05 286.727 9.27265e-05H474.019Z" fill="#FFFCEB"/>
</g>
<defs>
<filter id="filter0_d_11_704" x="0" y="0" width="1349" height="202" filterUnits="userSpaceOnUse" color-interpolation-filters="sRGB">
<feFlood flood-opacity="0" result="BackgroundImageFix"/>
<feColorMatrix in="SourceAlpha" type="matrix" values="0 0 0 0 0 0 0 0 0 0 0 0 0 0 0 0 0 0 127 0" result="hardAlpha"/>
<feOffset dy="4"/>
<feGaussianBlur stdDeviation="2"/>
<feComposite in2="hardAlpha" operator="out"/>
<feColorMatrix type="matrix" values="0 0 0 0 0 0 0 0 0 0 0 0 0 0 0 0 0 0 0.25 0"/>
<feBlend mode="normal" in2="BackgroundImageFix" result="effect1_dropShadow_11_704"/>
<feBlend mode="normal" in="SourceGraphic" in2="effect1_dropShadow_11_704" result="shape"/>
</filter>
</defs>
</svg>
