<svg width="34" height="31" viewBox="0 0 34 31" fill="none" xmlns="http://www.w3.org/2000/svg">
<path d="M9.52637 0C12.4187 6.16273e-05 15.0078 1.25361 16.7549 3.22949C18.4872 1.48728 20.9164 0.402417 23.6074 0.402344C28.8686 0.402344 33.1338 4.54391 33.1338 9.65234C33.1337 12.449 31.8533 14.9534 29.833 16.6494C29.8065 16.6871 29.778 16.7252 29.7451 16.7607L17.5078 29.9727C17.112 30.4 16.4358 30.4 16.04 29.9727L3.80273 16.7607C3.73155 16.6839 3.67588 16.6005 3.63379 16.5146C1.42178 14.8209 0.000119144 12.1975 0 9.25C0 4.14157 4.26522 0 9.52637 0Z" fill="currentColor"/>
</svg>
