<svg width="50" height="50" viewBox="0 0 50 50" fill="none" xmlns="http://www.w3.org/2000/svg">
<path d="M16.5005 10C19.9922 10.0001 23.1178 11.4898 25.227 13.8379C27.3182 11.7675 30.2508 10.4782 33.4995 10.4781C39.8509 10.4781 45 15.3999 45 21.4707C44.9999 24.7942 43.4541 27.7704 41.0152 29.7859C40.9832 29.8307 40.9488 29.876 40.9091 29.9182L26.1359 45.6191C25.6581 46.1269 24.8417 46.1269 24.3639 45.6191L9.59076 29.9182C9.50483 29.8269 9.43762 29.7278 9.38681 29.6257C6.71641 27.613 5.00014 24.4953 5 20.9926C5 14.9218 10.1491 10 16.5005 10Z" fill="black"/>
</svg>
