<svg width="33" height="35" viewBox="0 0 33 35" fill="none" xmlns="http://www.w3.org/2000/svg">
<path d="M12.5098 0C19.4183 0.00014529 25.0183 5.42554 25.0186 12.1182C25.0186 14.6769 24.1982 17.049 22.8008 19.0049L23.1387 19.3936C23.4995 19.8085 23.4568 20.4357 23.0449 20.7988L32.0117 31.1055C32.3742 31.5221 32.3297 32.1541 31.9131 32.5166L29.7969 34.3584C29.3802 34.7209 28.7482 34.6764 28.3857 34.2598L19.418 23.9521C19.002 24.2759 18.4011 24.2227 18.0508 23.8203L17.5283 23.2188C15.9919 23.872 14.2951 24.2373 12.5098 24.2373C5.60097 24.2373 0 18.8111 0 12.1182C0.000223979 5.42545 5.6011 0 12.5098 0ZM12.3984 4.52734C7.968 4.52748 4.37695 7.95548 4.37695 12.1846C4.37702 16.4136 7.96804 19.8417 12.3984 19.8418C16.829 19.8418 20.4208 16.4137 20.4209 12.1846C20.4209 7.9554 16.829 4.52734 12.3984 4.52734Z" fill="currentColor"/>
</svg>
