<svg width="50" height="50" viewBox="0 0 50 50" fill="none" xmlns="http://www.w3.org/2000/svg">
<g clip-path="url(#clip0_13_800)">
<path d="M20.5098 8C27.4183 8.00015 33.0183 13.4255 33.0186 20.1182C33.0186 22.6769 32.1982 25.049 30.8008 27.0049L31.1387 27.3936C31.4995 27.8085 31.4568 28.4357 31.0449 28.7988L40.0117 39.1055C40.3742 39.5221 40.3297 40.1541 39.9131 40.5166L37.7969 42.3584C37.3802 42.7209 36.7482 42.6764 36.3857 42.2598L27.418 31.9521C27.002 32.2759 26.4011 32.2227 26.0508 31.8203L25.5283 31.2188C23.9919 31.872 22.2951 32.2373 20.5098 32.2373C13.601 32.2373 8 26.8111 8 20.1182C8.00022 13.4255 13.6011 8 20.5098 8ZM20.3984 12.5273C15.968 12.5275 12.3769 15.9555 12.3769 20.1846C12.377 24.4136 15.968 27.8417 20.3984 27.8418C24.829 27.8418 28.4208 24.4137 28.4209 20.1846C28.4209 15.9554 24.829 12.5273 20.3984 12.5273Z" fill="black"/>
</g>
<defs>
<clipPath id="clip0_13_800">
<rect width="33" height="35" fill="white" transform="translate(8 8)"/>
</clipPath>
</defs>
</svg>
