<svg width="100" height="100" viewBox="0 0 100 100" fill="none" xmlns="http://www.w3.org/2000/svg">
<path d="M57.2793 85.0664C58.0488 85.0667 58.5292 85.8999 58.1445 86.5664L50.7783 99.3252C50.3934 99.9919 49.4318 99.9919 49.0469 99.3252L41.6807 86.5664C41.296 85.8998 41.7772 85.0664 42.5469 85.0664H57.2793ZM18.1875 69.5498C18.485 68.8398 19.4401 68.7184 19.9062 69.3311L28.8271 81.0557C29.2928 81.6683 28.9207 82.555 28.1572 82.6523L13.543 84.5166C12.7796 84.6136 12.1967 83.8476 12.4941 83.1377L18.1875 69.5498ZM83.502 69.3311C83.9681 68.7184 84.9232 68.8398 85.2207 69.5498L90.9141 83.1377C91.2115 83.8476 90.6286 84.6136 89.8652 84.5166L75.251 82.6523C74.4875 82.555 74.1154 81.6683 74.5811 81.0557L83.502 69.3311ZM49.9131 20.0117C66.4269 20.0118 79.8145 33.3992 79.8145 49.9131C79.8143 66.4268 66.4268 79.8134 49.9131 79.8135C33.3992 79.8135 20.0119 66.4269 20.0117 49.9131C20.0117 33.3991 33.3991 20.0117 49.9131 20.0117ZM13.2588 41.6807C13.9255 41.2958 14.7588 41.7771 14.7588 42.5469V57.2793C14.7586 58.0489 13.9253 58.5301 13.2588 58.1455L0.5 50.7793C-0.16665 50.3944 -0.166617 49.4318 0.5 49.0469L13.2588 41.6807ZM85.0674 42.5469C85.0674 41.7771 85.9007 41.2958 86.5674 41.6807L99.3262 49.0469C99.9924 49.4319 99.9925 50.3944 99.3262 50.7793L86.5674 58.1455C85.9008 58.5304 85.0676 58.0489 85.0674 57.2793V42.5469ZM11.9268 15.6611L26.541 17.5244C27.3045 17.6218 27.6767 18.5095 27.2109 19.1221L18.29 30.8467C17.8239 31.4593 16.8688 31.3378 16.5713 30.6279L10.8779 17.04C10.5805 16.3302 11.1633 15.5641 11.9268 15.6611ZM88.249 15.6611C89.0124 15.5641 89.5953 16.3302 89.2979 17.04L83.6045 30.6279C83.3069 31.3378 82.3518 31.4593 81.8857 30.8467L72.9648 19.1221C72.499 18.5095 72.8713 17.6218 73.6348 17.5244L88.249 15.6611ZM49.0469 0.5C49.4318 -0.166511 50.3934 -0.166473 50.7783 0.5L58.1445 13.2588C58.5294 13.9253 58.0489 14.7585 57.2793 14.7588H42.5469C41.7771 14.7588 41.2958 13.9255 41.6807 13.2588L49.0469 0.5Z" fill="currentColor"/>
</svg>
