<svg width="1341" height="194" viewBox="0 0 1341 194" fill="none" xmlns="http://www.w3.org/2000/svg">
<path d="M470.019 0C473.53 -2.39755e-07 476.987 0.228284 480.365 0.665039C483.963 0.225628 487.616 -0.000254918 491.294 0.000976562H645.344C645.413 0.000799925 645.483 4.72595e-09 645.552 0H695.45C695.519 4.72595e-09 695.589 0.000799925 695.658 0.000976562H849.708C853.386 -0.000254918 857.039 0.225628 860.637 0.665039C864.015 0.228284 867.472 -2.39755e-07 870.983 0H1058.28C1058.34 4.72556e-09 1058.41 0.000799955 1058.48 0.000976562H1293.97C1319.84 0.000978329 1341 14.846 1341 32.9893C1341 51.1323 1319.84 65.9766 1293.97 65.9766H1291.62C1291.62 70.9247 1293.97 75.8731 1293.97 82.4707C1293.97 118.757 1251.64 148.446 1199.9 148.446C1181.09 148.446 1164.63 145.147 1148.16 138.55C1141.11 153.394 1119.94 164.94 1094.08 164.94C1077.35 164.94 1062.44 160.253 1051.83 152.617C1038.09 166.362 1016.67 175.242 992.724 175.242C962.757 175.242 938.408 162.099 925.298 143.114C921.552 144.575 914.06 146.035 908.441 146.035C897.313 146.035 887.197 143.139 879.238 138.245C875.965 143.734 871.395 148.717 865.738 152.919C857.532 159.016 847.352 163.238 836.302 165.127C825.251 167.016 813.752 166.499 803.049 163.635C793.538 176.103 778.768 185.579 761.289 190.426C743.81 195.273 724.718 195.187 707.311 190.185C692.518 185.933 679.734 178.355 670.501 168.473C661.268 178.355 648.484 185.933 633.691 190.185C616.284 195.187 597.192 195.273 579.713 190.426C562.234 185.579 547.464 176.103 537.953 163.635C527.25 166.499 515.751 167.016 504.7 165.127C493.65 163.238 483.47 159.016 475.264 152.919C469.607 148.717 465.037 143.734 461.764 138.245C453.805 143.139 443.689 146.035 432.561 146.035C426.942 146.035 419.45 144.575 415.704 143.114C402.594 162.099 378.245 175.242 348.278 175.242C324.33 175.242 302.914 166.362 289.175 152.617C278.557 160.253 263.654 164.94 246.927 164.94C221.058 164.94 199.893 153.394 192.838 138.55C176.376 145.147 159.914 148.446 141.101 148.446C89.364 148.446 47.0343 118.757 47.0342 82.4707C47.0342 75.8731 49.3857 70.9247 49.3857 65.9766H47.0342C21.1659 65.9766 0.000328553 51.1323 0 32.9893C-2.03082e-06 14.846 21.1657 0.000978329 47.0342 0.000976562H282.519C282.588 0.000799955 282.657 4.72556e-09 282.727 0H470.019Z" fill="#FFFCEB"/>
</svg>
