<svg width="1440" height="633" viewBox="0 0 1440 633" fill="none" xmlns="http://www.w3.org/2000/svg">
<g clip-path="url(#clip0_13_2616)">
<path fill-rule="evenodd" clip-rule="evenodd" d="M1388.85 -9.17506e-07L1386.06 11.6233C1383.27 23.2467 1377.68 47.0216 1374.89 70.2683C1372.09 94.0433 1372.09 117.29 1376.98 141.065C1381.87 164.312 1391.65 188.087 1394.44 211.333C1397.24 234.58 1393.04 258.355 1390.95 281.602C1388.85 305.377 1388.85 328.623 1390.25 352.398C1391.65 375.645 1394.44 399.42 1393.74 422.666C1393.04 445.913 1388.85 469.688 1386.76 492.935C1384.66 516.71 1384.66 539.956 1388.16 563.731C1391.65 586.978 1398.63 610.753 1402.12 622.376L1405.62 634L1409.81 634L1409.81 622.376C1409.81 610.753 1409.81 586.978 1409.81 563.731C1409.81 539.956 1409.81 516.71 1409.81 492.935C1409.81 469.688 1409.81 445.913 1409.81 422.666C1409.81 399.42 1409.81 375.645 1409.81 352.398C1409.81 328.623 1409.81 305.377 1409.81 281.602C1409.81 258.355 1409.81 234.58 1409.81 211.333C1409.81 188.087 1409.81 164.312 1409.81 141.065C1409.81 117.29 1409.81 94.0433 1409.81 70.2683C1409.81 47.0216 1409.81 23.2467 1409.81 11.6233L1409.81 -2.12993e-06L1388.85 -9.17506e-07Z" fill="#FFD877"/>
<path fill-rule="evenodd" clip-rule="evenodd" d="M1434.94 634L1437.03 623.433C1439.13 612.866 1443.31 591.733 1441.22 570.6C1439.13 549.466 1430.75 528.333 1430.75 507.2C1430.75 486.066 1439.13 464.933 1441.92 443.8C1444.71 422.667 1441.92 401.533 1435.63 380.4C1429.35 359.267 1419.58 338.133 1419.58 317C1419.58 295.867 1429.35 274.733 1431.45 253.6C1433.54 232.467 1427.96 211.333 1427.26 190.2C1426.56 169.067 1430.75 147.933 1429.35 126.8C1427.96 105.667 1420.97 84.5333 1418.18 63.4C1415.39 42.2667 1416.79 21.1334 1417.48 10.5667L1418.18 6.21269e-05L1409.8 6.24955e-05L1409.8 10.5667C1409.8 21.1334 1409.8 42.2667 1409.8 63.4C1409.8 84.5333 1409.8 105.667 1409.8 126.8C1409.8 147.933 1409.8 169.067 1409.8 190.2C1409.8 211.333 1409.8 232.467 1409.8 253.6C1409.8 274.733 1409.8 295.867 1409.8 317C1409.8 338.133 1409.8 359.267 1409.8 380.4C1409.8 401.533 1409.8 422.667 1409.8 443.8C1409.8 464.933 1409.8 486.066 1409.8 507.2C1409.8 528.333 1409.8 549.466 1409.8 570.6C1409.8 591.733 1409.8 612.866 1409.8 623.433L1409.8 634L1434.94 634Z" fill="#FFD877"/>
<path fill-rule="evenodd" clip-rule="evenodd" d="M1308.19 0.000487405L1309.85 15.3221C1311.51 30.1155 1314.83 60.2304 1313.17 90.3454C1311.51 120.989 1304.87 151.104 1303.21 181.219C1301.55 211.334 1304.87 241.449 1311.51 271.564C1318.15 301.679 1328.11 332.322 1328.94 362.437C1329.77 392.552 1321.47 422.667 1317.32 452.782C1313.17 482.897 1313.17 513.012 1314.83 543.655C1316.49 573.77 1319.81 603.885 1321.47 618.678L1323.13 634L1288.26 634L1288.26 618.678C1288.26 603.885 1288.26 573.77 1288.26 543.655C1288.26 513.012 1288.26 482.897 1288.26 452.782C1288.26 422.667 1288.26 392.552 1288.26 362.437C1288.26 332.322 1288.26 301.679 1288.26 271.564C1288.26 241.449 1288.26 211.334 1288.26 181.219C1288.26 151.104 1288.26 120.989 1288.26 90.3454C1288.26 60.2304 1288.26 30.1155 1288.26 15.3221L1288.26 0.000488281L1308.19 0.000487405Z" fill="#FFEAB0"/>
<path fill-rule="evenodd" clip-rule="evenodd" d="M1266.22 634L1266.22 626.075C1266.22 617.621 1266.22 601.243 1268.05 585.393C1269.89 569.015 1273.56 552.636 1276.63 536.258C1279.69 520.408 1282.14 504.03 1278.46 487.651C1274.79 471.273 1264.99 455.423 1261.93 439.045C1258.87 422.666 1262.54 406.288 1266.83 389.91C1271.11 374.06 1276.01 357.681 1277.85 341.303C1279.69 324.925 1278.46 309.075 1276.63 292.697C1274.79 276.318 1272.34 259.94 1269.28 244.09C1266.22 227.712 1262.54 211.333 1261.93 194.955C1261.32 178.577 1263.77 162.727 1267.44 146.348C1271.11 129.97 1276.01 113.592 1276.63 97.7417C1277.24 81.3634 1273.56 64.9851 1269.28 48.6067C1264.99 32.7568 1260.09 16.3784 1257.64 7.92511L1255.19 0.00012207L1288.26 0.000120616L1288.26 7.92511C1288.26 16.3784 1288.26 32.7568 1288.26 48.6067C1288.26 64.9851 1288.26 81.3634 1288.26 97.7417C1288.26 113.592 1288.26 129.97 1288.26 146.348C1288.26 162.727 1288.26 178.577 1288.26 194.955C1288.26 211.333 1288.26 227.712 1288.26 244.09C1288.26 259.94 1288.26 276.318 1288.26 292.697C1288.26 309.075 1288.26 324.925 1288.26 341.303C1288.26 357.681 1288.26 374.06 1288.26 389.91C1288.26 406.288 1288.26 422.666 1288.26 439.045C1288.26 455.423 1288.26 471.273 1288.26 487.651C1288.26 504.03 1288.26 520.408 1288.26 536.258C1288.26 552.636 1288.26 569.015 1288.26 585.393C1288.26 601.243 1288.26 617.621 1288.26 626.075L1288.26 634L1266.22 634Z" fill="#FFEAB0"/>
<path fill-rule="evenodd" clip-rule="evenodd" d="M1157.05 -6.97481e-07L1154.25 11.6233C1151.46 23.2467 1145.87 47.0216 1143.08 70.2683C1140.29 94.0433 1140.29 117.29 1145.18 141.065C1150.06 164.312 1159.84 188.087 1162.63 211.333C1165.43 234.58 1161.24 258.355 1159.14 281.602C1157.05 305.377 1157.05 328.623 1158.44 352.398C1159.84 375.645 1162.63 399.42 1161.94 422.666C1161.24 445.913 1157.05 469.688 1154.95 492.935C1152.86 516.71 1152.86 539.956 1156.35 563.731C1159.84 586.978 1166.82 610.753 1170.32 622.376L1173.81 634L1178 634L1178 622.376C1178 610.753 1178 586.978 1178 563.731C1178 539.956 1178 516.71 1178 492.935C1178 469.688 1178 445.913 1178 422.666C1178 399.42 1178 375.645 1178 352.398C1178 328.623 1178 305.377 1178 281.602C1178 258.355 1178 234.58 1178 211.333C1178 188.087 1178 164.312 1178 141.065C1178 117.29 1178 94.0433 1178 70.2683C1178 47.0216 1178 23.2467 1178 11.6233L1178 -1.61915e-06L1157.05 -6.97481e-07Z" fill="#FFD877"/>
<path fill-rule="evenodd" clip-rule="evenodd" d="M1203.13 634L1205.22 623.433C1207.32 612.866 1211.51 591.733 1209.41 570.6C1207.32 549.466 1198.94 528.333 1198.94 507.2C1198.94 486.066 1207.32 464.933 1210.11 443.8C1212.9 422.667 1210.11 401.533 1203.83 380.4C1197.54 359.267 1187.77 338.133 1187.77 317C1187.77 295.867 1197.54 274.733 1199.64 253.6C1201.73 232.467 1196.15 211.333 1195.45 190.2C1194.75 169.067 1198.94 147.933 1197.54 126.8C1196.15 105.667 1189.17 84.5333 1186.38 63.4C1183.58 42.2667 1184.98 21.1334 1185.68 10.5667L1186.38 6.21269e-05L1178 6.24955e-05L1178 10.5667C1178 21.1334 1178 42.2667 1178 63.4C1178 84.5333 1178 105.667 1178 126.8C1178 147.933 1178 169.067 1178 190.2C1178 211.333 1178 232.467 1178 253.6C1178 274.733 1178 295.867 1178 317C1178 338.133 1178 359.267 1178 380.4C1178 401.533 1178 422.667 1178 443.8C1178 464.933 1178 486.066 1178 507.2C1178 528.333 1178 549.466 1178 570.6C1178 591.733 1178 612.866 1178 623.433L1178 634L1203.13 634Z" fill="#FFD877"/>
<path fill-rule="evenodd" clip-rule="evenodd" d="M1076.38 0.000487405L1078.04 15.3221C1079.7 30.1155 1083.02 60.2304 1081.36 90.3454C1079.7 120.989 1073.06 151.104 1071.4 181.219C1069.74 211.334 1073.06 241.449 1079.7 271.564C1086.34 301.679 1096.3 332.322 1097.13 362.437C1097.97 392.552 1089.66 422.667 1085.51 452.782C1081.36 482.897 1081.36 513.012 1083.02 543.655C1084.68 573.77 1088 603.885 1089.66 618.678L1091.32 634L1056.46 634L1056.46 618.678C1056.46 603.885 1056.46 573.77 1056.46 543.655C1056.46 513.012 1056.46 482.897 1056.46 452.782C1056.46 422.667 1056.46 392.552 1056.46 362.437C1056.46 332.322 1056.46 301.679 1056.46 271.564C1056.46 241.449 1056.46 211.334 1056.46 181.219C1056.46 151.104 1056.46 120.989 1056.46 90.3454C1056.46 60.2304 1056.46 30.1155 1056.46 15.3221L1056.46 0.000488281L1076.38 0.000487405Z" fill="#FFEAB0"/>
<path fill-rule="evenodd" clip-rule="evenodd" d="M1034.41 634L1034.41 626.075C1034.41 617.621 1034.41 601.243 1036.25 585.393C1038.08 569.015 1041.76 552.636 1044.82 536.258C1047.88 520.408 1050.33 504.03 1046.66 487.651C1042.98 471.273 1033.18 455.423 1030.12 439.045C1027.06 422.666 1030.73 406.288 1035.02 389.91C1039.31 374.06 1044.21 357.681 1046.04 341.303C1047.88 324.925 1046.66 309.075 1044.82 292.697C1042.98 276.318 1040.53 259.94 1037.47 244.09C1034.41 227.712 1030.73 211.333 1030.12 194.955C1029.51 178.577 1031.96 162.727 1035.63 146.348C1039.31 129.97 1044.21 113.592 1044.82 97.7417C1045.43 81.3634 1041.76 64.9851 1037.47 48.6067C1033.18 32.7568 1028.28 16.3784 1025.84 7.92511L1023.39 0.00012207L1056.45 0.000120616L1056.45 7.92511C1056.45 16.3784 1056.45 32.7568 1056.45 48.6067C1056.45 64.9851 1056.45 81.3634 1056.45 97.7417C1056.45 113.592 1056.45 129.97 1056.45 146.348C1056.45 162.727 1056.45 178.577 1056.45 194.955C1056.45 211.333 1056.45 227.712 1056.45 244.09C1056.45 259.94 1056.45 276.318 1056.45 292.697C1056.45 309.075 1056.45 324.925 1056.45 341.303C1056.45 357.681 1056.45 374.06 1056.45 389.91C1056.45 406.288 1056.45 422.666 1056.45 439.045C1056.45 455.423 1056.45 471.273 1056.45 487.651C1056.45 504.03 1056.45 520.408 1056.45 536.258C1056.45 552.636 1056.45 569.015 1056.45 585.393C1056.45 601.243 1056.45 617.621 1056.45 626.075L1056.45 634L1034.41 634Z" fill="#FFEAB0"/>
<path fill-rule="evenodd" clip-rule="evenodd" d="M963.305 7.07443e-07L966.138 11.6233C968.971 23.2466 974.638 47.0216 977.471 70.2682C980.305 94.0431 980.305 117.29 975.346 141.065C970.388 164.311 960.471 188.086 957.638 211.333C954.804 234.58 959.054 258.354 961.179 281.601C963.305 305.376 963.305 328.623 961.888 352.398C960.471 375.644 957.638 399.419 958.346 422.666C959.054 445.912 963.305 469.687 965.43 492.934C967.555 516.709 967.555 539.956 964.013 563.73C960.471 586.977 953.388 610.752 949.846 622.375L946.304 633.999L942.054 633.999L942.054 622.375C942.054 610.752 942.054 586.977 942.054 563.73C942.054 539.956 942.054 516.709 942.054 492.934C942.054 469.687 942.054 445.912 942.054 422.666C942.054 399.419 942.054 375.644 942.054 352.398C942.054 328.623 942.054 305.376 942.054 281.601C942.054 258.354 942.054 234.58 942.054 211.333C942.054 188.086 942.054 164.311 942.054 141.065C942.054 117.29 942.054 94.0431 942.054 70.2682C942.054 47.0216 942.054 23.2466 942.054 11.6233L942.054 1.64228e-06L963.305 7.07443e-07Z" fill="#FFD877"/>
<path fill-rule="evenodd" clip-rule="evenodd" d="M916.564 634L914.44 623.433C912.316 612.866 908.067 591.733 910.192 570.6C912.316 549.467 920.813 528.333 920.813 507.2C920.813 486.067 912.316 464.933 909.484 443.8C906.651 422.667 909.484 401.534 915.856 380.4C922.229 359.267 932.142 338.134 932.142 317C932.142 295.867 922.229 274.734 920.105 253.601C917.98 232.467 923.645 211.334 924.353 190.201C925.061 169.067 920.813 147.934 922.229 126.801C923.645 105.668 930.726 84.5342 933.558 63.4009C936.39 42.2677 934.974 21.1343 934.266 10.5677L933.558 0.00105103L942.055 0.00105066L942.055 10.5677C942.055 21.1343 942.055 42.2677 942.055 63.4009C942.055 84.5342 942.055 105.668 942.055 126.801C942.055 147.934 942.055 169.067 942.055 190.201C942.055 211.334 942.055 232.467 942.055 253.601C942.055 274.734 942.055 295.867 942.055 317C942.055 338.134 942.055 359.267 942.055 380.4C942.055 401.534 942.055 422.667 942.055 443.8C942.055 464.933 942.055 486.067 942.055 507.2C942.055 528.333 942.055 549.467 942.055 570.6C942.055 591.733 942.055 612.866 942.055 623.433L942.055 634L916.564 634Z" fill="#FFD877"/>
<path fill-rule="evenodd" clip-rule="evenodd" d="M856.605 634L857.254 622.376C857.902 610.753 859.199 586.978 856.605 563.731C854.012 539.956 847.528 516.71 847.528 492.935C847.528 469.688 854.012 445.913 854.66 422.666C855.309 399.42 850.122 375.645 846.88 352.398C843.638 328.623 842.341 305.376 844.935 281.601C847.528 258.355 854.012 234.58 854.012 211.333C854.012 188.086 847.528 164.312 847.528 141.065C847.528 117.29 854.012 94.0432 857.902 70.2682C861.792 47.0215 863.089 23.2465 863.738 11.6232L864.386 -0.00012207L837.154 -0.000120872L837.154 11.6232C837.154 23.2465 837.154 47.0215 837.154 70.2682C837.154 94.0432 837.154 117.29 837.154 141.065C837.154 164.312 837.154 188.086 837.154 211.333C837.154 234.58 837.154 258.355 837.154 281.601C837.154 305.376 837.154 328.623 837.154 352.398C837.154 375.645 837.154 399.42 837.154 422.666C837.154 445.913 837.154 469.688 837.154 492.935C837.154 516.71 837.154 539.956 837.154 563.731C837.154 586.978 837.154 610.753 837.154 622.376L837.154 634L856.605 634Z" fill="#FFEAB0"/>
<path fill-rule="evenodd" clip-rule="evenodd" d="M821.64 634L820.344 618.678C819.047 603.885 816.453 573.77 817.75 543.655C819.047 513.011 824.234 482.896 825.531 452.781C826.827 422.666 824.234 392.551 819.047 362.436C813.86 332.321 806.079 301.678 805.431 271.563C804.783 241.448 811.266 211.333 814.508 181.218C817.75 151.103 817.75 120.988 816.453 90.3448C815.157 60.2299 812.563 30.1149 811.266 15.3215L809.97 -0.000120872L837.201 -0.00012207L837.201 15.3215C837.201 30.1149 837.201 60.2299 837.201 90.3448C837.201 120.988 837.201 151.103 837.201 181.218C837.201 211.333 837.201 241.448 837.201 271.563C837.201 301.678 837.201 332.321 837.201 362.436C837.201 392.551 837.201 422.666 837.201 452.781C837.201 482.896 837.201 513.011 837.201 543.655C837.201 573.77 837.201 603.885 837.201 618.678L837.201 634L821.64 634Z" fill="#FFEAB0"/>
<path fill-rule="evenodd" clip-rule="evenodd" d="M705.381 0.00439546L703.626 15.326C701.871 30.1192 698.362 60.234 700.116 90.3487C701.871 120.992 708.89 151.107 710.645 181.221C712.399 211.336 708.89 241.451 701.871 271.566C694.852 301.681 684.324 332.324 683.447 362.438C682.569 392.553 691.343 422.668 695.73 452.783C700.116 482.898 700.116 513.012 698.362 543.656C696.607 573.77 693.098 603.885 691.343 618.678L689.588 634L726.437 634L726.437 618.678C726.437 603.885 726.437 573.77 726.437 543.656C726.437 513.012 726.437 482.898 726.437 452.783C726.437 422.668 726.437 392.553 726.437 362.438C726.437 332.324 726.437 301.681 726.437 271.566C726.437 241.451 726.437 211.336 726.437 181.221C726.437 151.107 726.437 120.992 726.437 90.3487C726.437 60.234 726.437 30.1192 726.437 15.326L726.437 0.00439453L705.381 0.00439546Z" fill="#FFD877"/>
<path fill-rule="evenodd" clip-rule="evenodd" d="M749.736 633.996L749.736 626.071C749.736 617.617 749.736 601.239 747.795 585.389C745.853 569.011 741.97 552.633 738.734 536.255C735.498 520.405 732.91 504.027 736.793 487.648C740.676 471.27 751.031 455.42 754.267 439.042C757.503 422.664 753.62 406.286 749.089 389.907C744.559 374.057 739.381 357.679 737.44 341.301C735.498 324.923 736.793 309.073 738.734 292.695C740.676 276.316 743.265 259.938 746.501 244.088C749.736 227.71 753.62 211.332 754.267 194.954C754.914 178.576 752.325 162.726 748.442 146.347C744.559 129.969 739.381 113.591 738.734 97.7411C738.087 81.3629 741.97 64.9847 746.5 48.6064C751.031 32.7566 756.208 16.3784 758.797 7.92511L761.386 0.00012207L726.438 0.000123608L726.438 7.92511C726.438 16.3784 726.438 32.7566 726.438 48.6064C726.438 64.9847 726.438 81.3629 726.438 97.7411C726.438 113.591 726.438 129.969 726.438 146.347C726.438 162.726 726.438 178.576 726.438 194.954C726.438 211.332 726.438 227.71 726.438 244.088C726.438 259.938 726.438 276.316 726.438 292.695C726.438 309.073 726.438 324.923 726.438 341.301C726.438 357.679 726.438 374.057 726.438 389.907C726.438 406.286 726.438 422.664 726.438 439.042C726.438 455.42 726.438 471.27 726.438 487.648C726.438 504.027 726.438 520.405 726.438 536.255C726.438 552.633 726.438 569.011 726.438 585.389C726.438 601.239 726.438 617.617 726.438 626.071L726.438 633.996L749.736 633.996Z" fill="#FFD877"/>
<path fill-rule="evenodd" clip-rule="evenodd" d="M585.24 -6.97481e-07L582.447 11.6233C579.653 23.2467 574.066 47.0216 571.273 70.2683C568.48 94.0433 568.48 117.29 573.368 141.065C578.257 164.312 588.034 188.087 590.827 211.333C593.621 234.58 589.43 258.355 587.335 281.602C585.24 305.377 585.24 328.623 586.637 352.398C588.034 375.645 590.827 399.42 590.129 422.666C589.43 445.913 585.24 469.688 583.145 492.935C581.05 516.71 581.05 539.956 584.542 563.731C588.034 586.978 595.017 610.753 598.509 622.376L602.001 634L606.191 634L606.191 622.376C606.191 610.753 606.191 586.978 606.191 563.731C606.191 539.956 606.191 516.71 606.191 492.935C606.191 469.688 606.191 445.913 606.191 422.666C606.191 399.42 606.191 375.645 606.191 352.398C606.191 328.623 606.191 305.377 606.191 281.602C606.191 258.355 606.191 234.58 606.191 211.333C606.191 188.087 606.191 164.312 606.191 141.065C606.191 117.29 606.191 94.0433 606.191 70.2683C606.191 47.0216 606.191 23.2467 606.191 11.6233L606.191 -1.61915e-06L585.24 -6.97481e-07Z" fill="#FFEAB0"/>
<path fill-rule="evenodd" clip-rule="evenodd" d="M631.322 634L633.416 623.433C635.511 612.866 639.699 591.733 637.605 570.6C635.511 549.466 627.133 528.333 627.133 507.2C627.133 486.066 635.511 464.933 638.303 443.8C641.095 422.667 638.303 401.533 632.02 380.4C625.737 359.267 615.964 338.133 615.964 317C615.964 295.867 625.737 274.733 627.832 253.6C629.926 232.467 624.341 211.333 623.643 190.2C622.945 169.067 627.133 147.933 625.737 126.8C624.341 105.667 617.36 84.5333 614.568 63.4C611.775 42.2667 613.171 21.1334 613.87 10.5667L614.568 6.21269e-05L606.19 6.24955e-05L606.19 10.5667C606.19 21.1334 606.19 42.2667 606.19 63.4C606.19 84.5333 606.19 105.667 606.19 126.8C606.19 147.933 606.19 169.067 606.19 190.2C606.19 211.333 606.19 232.467 606.19 253.6C606.19 274.733 606.19 295.867 606.19 317C606.19 338.133 606.19 359.267 606.19 380.4C606.19 401.533 606.19 422.667 606.19 443.8C606.19 464.933 606.19 486.066 606.19 507.2C606.19 528.333 606.19 549.466 606.19 570.6C606.19 591.733 606.19 612.866 606.19 623.433L606.19 634L631.322 634Z" fill="#FFEAB0"/>
<path fill-rule="evenodd" clip-rule="evenodd" d="M504.573 0.000487405L506.234 15.3221C507.894 30.1155 511.215 60.2304 509.554 90.3454C507.894 120.989 501.253 151.104 499.592 181.219C497.932 211.334 501.253 241.449 507.894 271.564C514.535 301.679 524.497 332.322 525.328 362.437C526.158 392.552 517.856 422.667 513.705 452.782C509.554 482.897 509.554 513.012 511.215 543.655C512.875 573.77 516.196 603.885 517.856 618.678L519.516 634L484.649 634L484.649 618.678C484.649 603.885 484.649 573.77 484.649 543.655C484.649 513.012 484.649 482.897 484.649 452.782C484.649 422.667 484.649 392.552 484.649 362.437C484.649 332.322 484.649 301.679 484.649 271.564C484.649 241.449 484.649 211.334 484.649 181.219C484.649 151.104 484.649 120.989 484.649 90.3454C484.649 60.2304 484.649 30.1155 484.649 15.3221L484.649 0.000488281L504.573 0.000487405Z" fill="#FFD877"/>
<path fill-rule="evenodd" clip-rule="evenodd" d="M462.601 634L462.601 626.075C462.601 617.621 462.601 601.243 464.438 585.393C466.275 569.015 469.95 552.636 473.011 536.258C476.073 520.408 478.523 504.03 474.849 487.651C471.174 471.273 461.376 455.423 458.314 439.045C455.253 422.666 458.927 406.288 463.213 389.91C467.5 374.06 472.399 357.681 474.236 341.303C476.073 324.925 474.849 309.075 473.011 292.697C471.174 276.318 468.725 259.94 465.663 244.09C462.601 227.712 458.927 211.333 458.314 194.955C457.702 178.577 460.152 162.727 463.826 146.348C467.5 129.97 472.399 113.592 473.011 97.7417C473.624 81.3634 469.95 64.9851 465.663 48.6067C461.376 32.7568 456.477 16.3784 454.028 7.92511L451.578 0.00012207L484.647 0.000120616L484.647 7.92511C484.647 16.3784 484.647 32.7568 484.647 48.6067C484.647 64.9851 484.647 81.3634 484.647 97.7417C484.647 113.592 484.647 129.97 484.647 146.348C484.647 162.727 484.647 178.577 484.647 194.955C484.647 211.333 484.647 227.712 484.647 244.09C484.647 259.94 484.647 276.318 484.647 292.697C484.647 309.075 484.647 324.925 484.647 341.303C484.647 357.681 484.647 374.06 484.647 389.91C484.647 406.288 484.647 422.666 484.647 439.045C484.647 455.423 484.647 471.273 484.647 487.651C484.647 504.03 484.647 520.408 484.647 536.258C484.647 552.636 484.647 569.015 484.647 585.393C484.647 601.243 484.647 617.621 484.647 626.075L484.647 634L462.601 634Z" fill="#FFD877"/>
<path fill-rule="evenodd" clip-rule="evenodd" d="M391.497 7.07443e-07L394.331 11.6233C397.164 23.2466 402.831 47.0216 405.664 70.2682C408.498 94.0431 408.498 117.29 403.539 141.065C398.581 164.311 388.664 188.086 385.831 211.333C382.997 234.58 387.247 258.354 389.372 281.601C391.497 305.376 391.497 328.623 390.081 352.398C388.664 375.644 385.831 399.419 386.539 422.666C387.247 445.912 391.497 469.687 393.622 492.934C395.747 516.709 395.747 539.956 392.206 563.73C388.664 586.977 381.581 610.752 378.039 622.375L374.497 633.999L370.247 633.999L370.247 622.375C370.247 610.752 370.247 586.977 370.247 563.73C370.247 539.956 370.247 516.709 370.247 492.934C370.247 469.687 370.247 445.912 370.247 422.666C370.247 399.419 370.247 375.644 370.247 352.398C370.247 328.623 370.247 305.376 370.247 281.601C370.247 258.354 370.247 234.58 370.247 211.333C370.247 188.086 370.247 164.311 370.247 141.065C370.247 117.29 370.247 94.0431 370.247 70.2682C370.247 47.0216 370.247 23.2466 370.247 11.6233L370.247 1.64228e-06L391.497 7.07443e-07Z" fill="#FFEAB0"/>
<path fill-rule="evenodd" clip-rule="evenodd" d="M344.757 634L342.633 623.433C340.509 612.866 336.26 591.733 338.385 570.6C340.509 549.467 349.006 528.333 349.006 507.2C349.006 486.067 340.509 464.933 337.676 443.8C334.844 422.667 337.676 401.534 344.049 380.4C350.422 359.267 360.335 338.134 360.335 317C360.335 295.867 350.422 274.734 348.298 253.601C346.173 232.467 351.838 211.334 352.546 190.201C353.254 169.067 349.006 147.934 350.422 126.801C351.838 105.668 358.919 84.5342 361.751 63.4009C364.583 42.2677 363.167 21.1343 362.459 10.5677L361.751 0.00105103L370.248 0.00105066L370.248 10.5677C370.248 21.1343 370.248 42.2677 370.248 63.4009C370.248 84.5342 370.248 105.668 370.248 126.801C370.248 147.934 370.248 169.067 370.248 190.201C370.248 211.334 370.248 232.467 370.248 253.601C370.248 274.734 370.248 295.867 370.248 317C370.248 338.134 370.248 359.267 370.248 380.4C370.248 401.534 370.248 422.667 370.248 443.8C370.248 464.933 370.248 486.067 370.248 507.2C370.248 528.333 370.248 549.467 370.248 570.6C370.248 591.733 370.248 612.866 370.248 623.433L370.248 634L344.757 634Z" fill="#FFEAB0"/>
<path fill-rule="evenodd" clip-rule="evenodd" d="M284.798 634L285.446 622.376C286.095 610.753 287.392 586.978 284.798 563.731C282.205 539.956 275.721 516.71 275.721 492.935C275.721 469.688 282.205 445.913 282.853 422.666C283.501 399.42 278.314 375.645 275.072 352.398C271.831 328.623 270.534 305.376 273.127 281.601C275.721 258.355 282.205 234.58 282.205 211.333C282.205 188.086 275.721 164.312 275.721 141.065C275.721 117.29 282.205 94.0432 286.095 70.2682C289.985 47.0215 291.282 23.2465 291.93 11.6232L292.579 -0.00012207L265.347 -0.000120872L265.347 11.6232C265.347 23.2465 265.347 47.0215 265.347 70.2682C265.347 94.0432 265.347 117.29 265.347 141.065C265.347 164.312 265.347 188.086 265.347 211.333C265.347 234.58 265.347 258.355 265.347 281.601C265.347 305.376 265.347 328.623 265.347 352.398C265.347 375.645 265.347 399.42 265.347 422.666C265.347 445.913 265.347 469.688 265.347 492.935C265.347 516.71 265.347 539.956 265.347 563.731C265.347 586.978 265.347 610.753 265.347 622.376L265.347 634L284.798 634Z" fill="#FFD877"/>
<path fill-rule="evenodd" clip-rule="evenodd" d="M249.833 634L248.537 618.678C247.24 603.885 244.646 573.77 245.943 543.655C247.24 513.011 252.427 482.896 253.724 452.781C255.02 422.666 252.427 392.551 247.24 362.436C242.053 332.321 234.272 301.678 233.624 271.563C232.976 241.448 239.459 211.333 242.701 181.218C245.943 151.103 245.943 120.988 244.646 90.3448C243.35 60.2299 240.756 30.1149 239.459 15.3215L238.163 -0.000120872L265.394 -0.00012207L265.394 15.3215C265.394 30.1149 265.394 60.2299 265.394 90.3448C265.394 120.988 265.394 151.103 265.394 181.218C265.394 211.333 265.394 241.448 265.394 271.563C265.394 301.678 265.394 332.321 265.394 362.436C265.394 392.551 265.394 422.666 265.394 452.781C265.394 482.896 265.394 513.011 265.394 543.655C265.394 573.77 265.394 603.885 265.394 618.678L265.394 634L249.833 634Z" fill="#FFD877"/>
<path fill-rule="evenodd" clip-rule="evenodd" d="M133.573 0.00439546L131.819 15.326C130.064 30.1192 126.555 60.234 128.309 90.3487C130.064 120.992 137.083 151.107 138.838 181.221C140.592 211.336 137.083 241.451 130.064 271.566C123.045 301.681 112.517 332.324 111.64 362.438C110.762 392.553 119.536 422.668 123.923 452.783C128.309 482.898 128.309 513.012 126.555 543.656C124.8 573.77 121.29 603.885 119.536 618.678L117.781 634L154.63 634L154.63 618.678C154.63 603.885 154.63 573.77 154.63 543.656C154.63 513.012 154.63 482.898 154.63 452.783C154.63 422.668 154.63 392.553 154.63 362.438C154.63 332.324 154.63 301.681 154.63 271.566C154.63 241.451 154.63 211.336 154.63 181.221C154.63 151.107 154.63 120.992 154.63 90.3487C154.63 60.234 154.63 30.1192 154.63 15.326L154.63 0.00439453L133.573 0.00439546Z" fill="#FFEAB0"/>
<path fill-rule="evenodd" clip-rule="evenodd" d="M177.929 633.996L177.929 626.071C177.929 617.617 177.929 601.239 175.988 585.389C174.046 569.011 170.163 552.633 166.927 536.255C163.691 520.405 161.103 504.027 164.986 487.648C168.869 471.27 179.224 455.42 182.46 439.042C185.696 422.664 181.812 406.286 177.282 389.907C172.752 374.057 167.574 357.679 165.633 341.301C163.691 324.923 164.986 309.073 166.927 292.695C168.869 276.316 171.457 259.938 174.693 244.088C177.929 227.71 181.812 211.332 182.46 194.954C183.107 178.576 180.518 162.726 176.635 146.347C172.752 129.969 167.574 113.591 166.927 97.7411C166.28 81.3629 170.163 64.9847 174.693 48.6064C179.224 32.7566 184.401 16.3784 186.99 7.92511L189.579 0.00012207L154.631 0.000123608L154.631 7.92511C154.631 16.3784 154.631 32.7566 154.631 48.6064C154.631 64.9847 154.631 81.3629 154.631 97.7411C154.631 113.591 154.631 129.969 154.631 146.347C154.631 162.726 154.631 178.576 154.631 194.954C154.631 211.332 154.631 227.71 154.631 244.088C154.631 259.938 154.631 276.316 154.631 292.695C154.631 309.073 154.631 324.923 154.631 341.301C154.631 357.679 154.631 374.057 154.631 389.907C154.631 406.286 154.631 422.664 154.631 439.042C154.631 455.42 154.631 471.27 154.631 487.648C154.631 504.027 154.631 520.405 154.631 536.255C154.631 552.633 154.631 569.011 154.631 585.389C154.631 601.239 154.631 617.617 154.631 626.071L154.631 633.996L177.929 633.996Z" fill="#FFEAB0"/>
<path fill-rule="evenodd" clip-rule="evenodd" d="M13.4329 -6.97481e-07L10.6394 11.6233C7.84597 23.2467 2.25905 47.0216 -0.534411 70.2683C-3.32787 94.0433 -3.32787 117.29 1.56069 141.065C6.44925 164.312 16.2264 188.087 19.0198 211.333C21.8133 234.58 17.6231 258.355 15.528 281.602C13.4329 305.377 13.4329 328.623 14.8296 352.398C16.2264 375.645 19.0198 399.42 18.3215 422.666C17.6231 445.913 13.4329 469.688 11.3378 492.935C9.24273 516.71 9.24273 539.956 12.7346 563.731C16.2264 586.978 23.21 610.753 26.7019 622.376L30.1937 634L34.3839 634L34.3839 622.376C34.3839 610.753 34.3839 586.978 34.3839 563.731C34.3839 539.956 34.3839 516.71 34.3839 492.935C34.3839 469.688 34.3839 445.913 34.3839 422.666C34.3839 399.42 34.3839 375.645 34.3839 352.398C34.3839 328.623 34.3839 305.377 34.3839 281.602C34.3839 258.355 34.3839 234.58 34.3839 211.333C34.3839 188.087 34.3839 164.312 34.3839 141.065C34.3839 117.29 34.3839 94.0433 34.3839 70.2683C34.3839 47.0216 34.3839 23.2467 34.3839 11.6233L34.3839 -1.61915e-06L13.4329 -6.97481e-07Z" fill="#FFD877"/>
<path fill-rule="evenodd" clip-rule="evenodd" d="M59.5147 634L61.609 623.433C63.7033 612.866 67.8919 591.733 65.7976 570.6C63.7033 549.466 55.3261 528.333 55.3261 507.2C55.3261 486.066 63.7033 464.933 66.4957 443.8C69.2881 422.667 66.4957 401.533 60.2128 380.4C53.9299 359.267 44.1565 338.133 44.1565 317C44.1565 295.867 53.9299 274.733 56.0242 253.6C58.1185 232.467 52.5337 211.333 51.8356 190.2C51.1375 169.067 55.3261 147.933 53.9299 126.8C52.5337 105.667 45.5527 84.5333 42.7603 63.4C39.9679 42.2667 41.3641 21.1334 42.0622 10.5667L42.7603 6.21269e-05L34.383 6.24955e-05L34.383 10.5667C34.383 21.1334 34.3831 42.2667 34.3831 63.4C34.3831 84.5333 34.3831 105.667 34.3831 126.8C34.3831 147.933 34.3831 169.067 34.3831 190.2C34.3831 211.333 34.3831 232.467 34.3831 253.6C34.3831 274.733 34.3831 295.867 34.3831 317C34.3831 338.133 34.3831 359.267 34.3831 380.4C34.3831 401.533 34.3831 422.667 34.3831 443.8C34.3831 464.933 34.3831 486.066 34.3831 507.2C34.3831 528.333 34.3831 549.466 34.3831 570.6C34.3831 591.733 34.3831 612.866 34.3831 623.433L34.3831 634L59.5147 634Z" fill="#FFD877"/>
</g>
<defs>
<clipPath id="clip0_13_2616">
<rect width="1440" height="633" fill="white"/>
</clipPath>
</defs>
</svg>
