<svg width="261" height="55" viewBox="0 0 261 55" fill="none" xmlns="http://www.w3.org/2000/svg">
<ellipse cx="27.3125" cy="27.1426" rx="26.0701" ry="25.7315" fill="#0F71F2"/>
<ellipse cx="9.38506" cy="10.8511" rx="9.38506" ry="10.8511" transform="matrix(-1 0 0 1 44.9921 14.3311)" fill="white"/>
<ellipse cx="34.2667" cy="25.5053" rx="6.43547" ry="7.41054" fill="#1A1A19"/>
<ellipse cx="9.38506" cy="10.8511" rx="9.38506" ry="10.8511" transform="matrix(-1 0 0 1 25.6258 14.3311)" fill="white"/>
<ellipse cx="14.9004" cy="25.5053" rx="6.43547" ry="7.41054" fill="#1A1A19"/>
<rect width="20.8267" height="6.36508" rx="3.18254" transform="matrix(0.990982 0.133995 -0.137479 0.990505 6.45911 12.9639)" fill="#0F71F2"/>
<rect width="22.2408" height="6.29518" rx="3.14759" transform="matrix(0.990982 0.133995 -0.137479 0.990505 25.5187 9.26855)" fill="#0F71F2"/>
<path d="M32.21 39.6816C30.2856 40.3737 29.5492 40.4924 27.4084 40.3751" stroke="#1A1A19" stroke-width="5" stroke-linecap="round"/>
<rect width="55" height="55" rx="5" fill="#0F71F2"/>
<rect width="1.33091" height="3.91427" rx="0.665455" transform="matrix(0.556982 -0.830525 0.837167 0.546948 3.96384 16.5488)" fill="#1A1A19"/>
<rect width="1.33663" height="3.65665" rx="0.668317" transform="matrix(0.799219 -0.601041 0.611065 0.79158 5.6116 13.9658)" fill="#1A1A19"/>
<rect width="1.33091" height="3.3865" rx="0.665455" transform="matrix(-0.556982 -0.830525 -0.837167 0.546948 49.9468 16.5488)" fill="#1A1A19"/>
<rect width="1.33663" height="3.37202" rx="0.668317" transform="matrix(-0.799219 -0.601041 -0.611065 0.79158 48.2984 13.9658)" fill="#1A1A19"/>
<ellipse cx="24.5627" cy="37.6829" rx="1.72812" ry="2.1321" fill="#1A1A19"/>
<ellipse cx="10.5713" cy="12.2329" rx="10.5713" ry="12.2329" transform="matrix(-1 0 0 1 26.6979 11.5908)" fill="white"/>
<ellipse cx="6.926" cy="8.27522" rx="6.926" ry="8.27522" transform="matrix(-1 0 0 1 20.8644 16.3613)" fill="#1A1A19"/>
<ellipse cx="10.5713" cy="12.2329" rx="10.5713" ry="12.2329" transform="matrix(-1 0 0 1 48.7576 11.6709)" fill="white"/>
<ellipse cx="6.92599" cy="8.27522" rx="6.92599" ry="8.27522" transform="matrix(-1 0 0 1 42.9259 16.4414)" fill="#1A1A19"/>
<g clip-path="url(#clip0_1_433)">
<path d="M68.9606 14.0815V7.25571H69.7444C72.4103 7.25571 73.5371 8.28359 73.5371 10.6124C73.5371 12.9412 72.7001 14.0815 69.9404 14.0815H68.9606ZM68.9606 26.4361V18.462H70.2098C72.7451 18.462 74.4515 19.5581 74.4515 22.3487C74.4515 24.9264 73.8922 26.4361 70.414 26.4361H68.9606ZM80.3058 22.714C80.3058 19.1968 78.6728 17.2695 75.4395 16.1693C78.4319 15.2659 79.3301 12.5236 79.3301 10.1948C79.3301 6.09935 76.8806 2.70654 71.7979 2.70654H63.1757V30.9812H72.2878C78.4483 30.9812 80.3017 26.7212 80.3017 22.714H80.3058ZM96.8398 1.03223L95.9621 3.16026C94.6084 2.65136 93.1696 2.39668 91.7204 2.40942C85.9764 2.40942 81.7306 5.9267 81.7306 12.6802V21.0437C81.7306 24.7296 82.9798 27.4238 85.0211 29.1021L83.731 32.1737H86.3887L87.1439 30.4151C88.6055 31.0095 90.1758 31.3019 91.7571 31.2743C97.5012 31.2743 101.747 27.9177 101.747 20.9996V12.644C101.747 8.83367 100.371 6.06321 98.1258 4.33268L99.5016 1.04427L96.8398 1.03223ZM95.5498 10.4357C95.5845 10.7999 95.5967 11.1665 95.5865 11.5318V22.184C95.5865 25.621 94.2189 26.6007 91.7204 26.6007C90.7636 26.6816 89.8112 26.4033 89.0545 25.8218L95.5498 10.4357ZM87.9033 22.2804V11.5037C87.9033 8.18723 89.275 7.08708 91.7694 7.08708C92.5716 7.05379 93.3671 7.2445 94.0637 7.63715L87.9033 22.2804ZM109.859 14.0975V7.28783H111.582C114.439 7.28783 115.746 8.27154 115.746 10.4357C115.746 12.5999 114.848 14.0815 111.582 14.0815L109.859 14.0975ZM116.726 17.8196C119.383 16.8399 121.343 13.8968 121.343 10.5923C121.343 6.49685 118.893 2.73465 113.353 2.73465H104.045V31.0093H109.859V18.7029H111.108L115.431 30.9812H122.065L116.726 17.8196ZM129.124 30.9772V12.7324L135.832 30.9812H143.017V2.70654H137.656V20.9112L130.871 2.70654H123.715V30.9812L129.124 30.9772ZM159.706 26.2675H151.892V18.5784H159.085V13.9168H151.884V7.42435H159.289V2.70654H145.911V30.9812H159.645L159.706 26.2675ZM167.957 14.0975V7.27177H168.736C171.402 7.27177 172.521 8.29965 172.521 10.6284C172.521 12.9572 171.704 14.1096 168.932 14.1096L167.957 14.0975ZM167.957 26.4562V18.462H169.206C171.741 18.462 173.447 19.5581 173.447 22.3487C173.447 24.9264 172.888 26.4361 169.41 26.4361L167.957 26.4562ZM179.273 22.7301C179.273 19.2128 177.64 17.2896 174.407 16.1854C177.403 15.282 178.306 12.5397 178.306 10.2109C178.306 6.11541 175.856 2.72261 170.778 2.72261H162.159V30.9973H171.271C177.428 30.9973 179.257 26.7372 179.257 22.7301H179.273ZM181.343 30.9973H187.291V2.70654H181.343V30.9973ZM205.805 7.42435V2.70654H190.618V30.9812H196.571V18.6186H203.919V13.9168H196.571V7.42435H205.805ZM223.282 7.42435V2.70654H208.091V30.9812H214.052V18.6186H221.4V13.9168H214.052V7.42435H223.282ZM239.302 26.2956H231.5V18.5985H238.718V13.9168H231.521V7.42435H238.93V2.70654H225.552V30.9812H239.281L239.302 26.2956ZM246.748 31.0053V12.7324L253.488 30.9812H260.69V2.70654H255.326V20.9112L248.536 2.70654H241.404V30.9812L246.748 31.0053ZM66.1355 50.6836C65.7254 50.685 65.3159 50.6541 64.9108 50.5912C64.5781 50.5407 64.2494 50.4668 63.9269 50.3704C63.7214 50.311 63.523 50.2303 63.335 50.1295L63.6493 48.7925C63.8473 48.9017 64.0551 48.9928 64.2698 49.0655C64.5364 49.1586 64.8091 49.2337 65.0863 49.2903C65.3863 49.3476 65.6911 49.3772 65.9967 49.3787C66.4428 49.406 66.8878 49.3115 67.2827 49.1056C67.43 49.0082 67.5481 48.8738 67.6249 48.7164C67.7017 48.559 67.7344 48.3842 67.7195 48.2103C67.7278 47.9584 67.6502 47.7111 67.4991 47.5076C67.3071 47.2867 67.0761 47.1017 66.8173 46.9615C66.5111 46.7889 66.1274 46.5922 65.662 46.3753C65.2596 46.1843 64.8768 45.9557 64.5189 45.6928C64.1738 45.4372 63.8779 45.1231 63.6452 44.7653C63.4316 44.401 63.3127 43.9906 63.2991 43.5703C63.2856 43.15 63.3778 42.7329 63.5677 42.3562C63.7448 42.045 63.9972 41.7817 64.3025 41.5893C64.6246 41.3862 64.9794 41.2382 65.3517 41.1516C66.2549 40.9608 67.1906 40.9759 68.087 41.1958C68.3842 41.2713 68.6707 41.3833 68.9402 41.529L68.6299 42.8219C68.3749 42.664 68.1005 42.5386 67.8134 42.4485C67.4178 42.3248 67.0037 42.2678 66.5887 42.2799C66.301 42.2762 66.0145 42.3169 65.7395 42.4003C65.5089 42.4617 65.299 42.5823 65.1312 42.7497C65.0542 42.8283 64.9942 42.9215 64.9549 43.0237C64.9156 43.1258 64.8978 43.2348 64.9026 43.3439C64.8945 43.5868 64.9581 43.8269 65.0863 44.0345C65.239 44.2553 65.4415 44.438 65.6783 44.5685C65.9477 44.7331 66.2988 44.9259 66.7357 45.1507C67.0786 45.3153 67.4052 45.492 67.7236 45.6767C68.0288 45.8554 68.3159 46.0624 68.5809 46.295C68.8282 46.5134 69.0306 46.7765 69.177 47.07C69.3284 47.3803 69.404 47.7216 69.3974 48.0657C69.4155 48.5786 69.273 49.0845 68.9892 49.5152C68.7063 49.9075 68.3134 50.2103 67.8583 50.3865C67.3094 50.5956 66.724 50.6965 66.1355 50.6836ZM73.8555 50.6836C73.3993 50.7122 72.9424 50.6397 72.5185 50.4716C72.0945 50.3034 71.7144 50.0438 71.406 49.7119C70.7953 48.9485 70.4903 47.9914 70.5487 47.0218C70.537 46.3846 70.668 45.7526 70.9324 45.1708C71.1758 44.6445 71.5666 44.1974 72.0592 43.8819C72.6072 43.5505 73.2409 43.3818 73.8841 43.3961C74.2369 43.3861 74.5889 43.435 74.9251 43.5406C75.2441 43.647 75.5384 43.8149 75.7906 44.0345C76.0544 44.2725 76.262 44.5644 76.3989 44.8897C76.5585 45.2816 76.6389 45.7004 76.6357 46.1224V46.8371C76.6348 47.0247 76.6143 47.2117 76.5744 47.3952H71.4795L71.6101 46.4275H75.0966C75.1192 46.1102 75.0973 45.7913 75.0312 45.48C74.9834 45.2145 74.8503 44.9711 74.6516 44.7853C74.4144 44.5949 74.1118 44.5015 73.8065 44.5243C73.4971 44.5184 73.1938 44.6098 72.941 44.7853C72.6521 45.0147 72.4472 45.3305 72.3572 45.6847C72.2062 46.2529 72.149 46.8411 72.1858 47.4273C72.1868 47.8478 72.2933 48.2616 72.496 48.6318C72.6679 48.9158 72.9265 49.1393 73.235 49.2703C73.5636 49.4028 73.9167 49.4686 74.2719 49.463C74.4826 49.461 74.6924 49.4437 74.9006 49.4108C75.1345 49.3791 75.366 49.3333 75.5946 49.2743C75.771 49.2337 75.9416 49.1703 76.1008 49.0856L76.403 50.005C76.2049 50.152 75.9844 50.2672 75.7498 50.3463C75.453 50.4487 75.1484 50.5278 74.8394 50.5832C74.5152 50.6462 74.1862 50.68 73.8555 50.6836ZM86.8663 43.4844L82.1184 48.3789L82.2327 48.0175L82.2613 49.2221V50.5631H80.6283V40.2482H82.2613V45.3715L82.1878 47.1222L81.849 46.8692L84.9272 43.4844H86.8663ZM82.9717 47.1743L84.0862 46.0983L87.148 50.5671H85.2783L82.9717 47.1743ZM90.8182 50.6836C90.2908 50.6993 89.7668 50.5948 89.2872 50.3784C88.8824 50.1868 88.5319 49.8999 88.2666 49.5433C88.0023 49.1809 87.8111 48.772 87.7032 48.3387C87.5845 47.866 87.5282 47.3802 87.5359 46.8933C87.5251 46.2266 87.6851 45.5679 88.0013 44.9781C88.2833 44.4762 88.7092 44.0671 89.226 43.8016C89.7621 43.5297 90.358 43.3918 90.9611 43.4001C91.6482 43.3648 92.3286 43.5494 92.9002 43.9261C93.3822 44.2749 93.7452 44.7593 93.9413 45.3153C94.1576 45.914 94.2617 46.5468 94.2474 47.1824C94.2577 47.8516 94.0977 48.5127 93.782 49.1056C93.5018 49.6098 93.0755 50.0207 92.5573 50.2861C92.0203 50.5591 91.4225 50.6957 90.8182 50.6836ZM90.8631 49.5393C91.1125 49.5582 91.3624 49.5094 91.5856 49.3983C91.8087 49.2871 91.9966 49.1178 92.1286 48.9089C92.434 48.3604 92.5755 47.7383 92.5369 47.1141C92.5418 46.68 92.4841 46.2474 92.3654 45.8293C92.2759 45.4799 92.0942 45.16 91.8388 44.9018C91.7147 44.7847 91.5681 44.6932 91.4075 44.6325C91.247 44.5718 91.0758 44.5432 90.9039 44.5484C90.6575 44.529 90.4104 44.5746 90.1879 44.6805C89.9655 44.7864 89.7757 44.9487 89.6383 45.1507C89.3314 45.6884 89.1896 46.3021 89.2301 46.9174C89.2242 47.3566 89.2805 47.7944 89.3975 48.2183C89.4905 48.5813 89.6792 48.9133 89.9445 49.1819C90.0657 49.2987 90.2094 49.3904 90.3671 49.4518C90.5249 49.5131 90.6935 49.5429 90.8631 49.5393ZM95.762 50.5832V43.4965H97.1827L97.2848 44.4641L97.4154 44.9379V50.5832H95.762ZM97.3256 45.5683L97.2317 44.4641C97.3284 44.2737 97.468 44.1075 97.64 43.9783C97.8626 43.802 98.1101 43.6586 98.3748 43.5527C98.6534 43.4402 98.9514 43.3816 99.2526 43.38C99.3886 43.3732 99.5248 43.3732 99.6608 43.38C99.7506 43.3848 99.8388 43.4097 99.918 43.4523V44.9981C99.8262 44.9496 99.7289 44.9118 99.6281 44.8857C99.4265 44.8376 99.219 44.8174 99.0117 44.8255C98.7573 44.8209 98.5042 44.8617 98.2646 44.9459C98.0635 45.0131 97.8737 45.1092 97.7012 45.231C97.5649 45.3306 97.4387 45.4438 97.3256 45.5683ZM103.323 50.6836C102.993 50.6916 102.664 50.6314 102.359 50.5069C102.088 50.3831 101.868 50.1702 101.739 49.9047C101.578 49.5334 101.504 49.1314 101.522 48.7282V44.6488H100.608V43.7775C100.93 43.6892 101.175 43.6089 101.355 43.5406C101.449 43.5066 101.533 43.4531 101.604 43.3838C101.674 43.3145 101.729 43.231 101.763 43.1391C101.8 43.0428 101.837 42.9303 101.882 42.8018C101.927 42.6734 101.98 42.5288 102.033 42.3722L102.204 41.8703H103.196V43.4764H105.193V44.6408H103.196V47.9292C103.186 48.2625 103.208 48.5957 103.262 48.925C103.267 49.0053 103.291 49.0834 103.332 49.153C103.373 49.2227 103.43 49.2821 103.498 49.3265C103.659 49.3903 103.831 49.4192 104.005 49.4108C104.142 49.4096 104.278 49.3963 104.413 49.3706C104.561 49.3433 104.709 49.3084 104.854 49.2662C104.967 49.2329 105.076 49.1887 105.18 49.1337L105.433 50.0572C105.272 50.1785 105.095 50.2785 104.907 50.3543C104.667 50.4535 104.418 50.5314 104.164 50.5872C103.888 50.6503 103.606 50.6827 103.323 50.6836ZM107.271 50.5832V44.6568H106.238V43.7334L107.271 43.4844V42.842C107.257 42.3926 107.339 41.9453 107.511 41.529C107.655 41.2049 107.875 40.9187 108.152 40.6939C108.407 40.4888 108.701 40.3371 109.018 40.2482C109.315 40.1651 109.623 40.1219 109.932 40.1197C110.151 40.1179 110.37 40.1341 110.586 40.1679C110.723 40.1852 110.86 40.2121 110.994 40.2482V41.4528C110.861 41.4098 110.724 41.3789 110.586 41.3604C110.376 41.3331 110.164 41.321 109.953 41.3243C109.815 41.3209 109.678 41.3485 109.553 41.4048C109.428 41.4612 109.318 41.5449 109.23 41.6495C109.021 41.9357 108.921 42.2856 108.948 42.6372V43.4724H110.671V44.6448H108.948V50.5712L107.271 50.5832ZM112.868 42.312C112.608 42.3172 112.355 42.2254 112.161 42.055C112.063 41.9713 111.985 41.8668 111.933 41.7493C111.882 41.6318 111.858 41.5043 111.863 41.3765C111.862 41.1857 111.92 40.999 112.031 40.8425C112.135 40.6859 112.274 40.5554 112.439 40.461C112.606 40.3667 112.794 40.3169 112.986 40.3165C113.116 40.3035 113.248 40.3185 113.372 40.3603C113.495 40.4021 113.608 40.4698 113.703 40.5587C113.798 40.6476 113.872 40.7556 113.92 40.8753C113.968 40.9949 113.989 41.1235 113.982 41.252C113.986 41.3942 113.958 41.5356 113.9 41.666C113.842 41.7964 113.756 41.9128 113.647 42.0068C113.437 42.2036 113.158 42.3129 112.868 42.312ZM112.129 50.5832V43.4965H113.762V50.5832H112.129ZM116.015 50.5832V40.2201H117.681V50.5832H116.015ZM119.873 50.5832V43.4965H121.38V44.2473C121.589 44.0992 121.809 43.9651 122.037 43.8458C122.31 43.7081 122.595 43.5965 122.89 43.5125C123.192 43.4227 123.505 43.3715 123.821 43.36C124.25 43.3273 124.68 43.4091 125.066 43.5968C125.398 43.7945 125.646 44.1041 125.764 44.4681C125.929 45.0009 126.004 45.5574 125.985 46.1143V50.5631H124.352V46.2669C124.359 45.9576 124.326 45.6486 124.254 45.3475C124.232 45.2436 124.189 45.1451 124.128 45.0576C124.067 44.9701 123.989 44.8953 123.898 44.8375C123.665 44.7211 123.403 44.6737 123.143 44.701C122.881 44.7154 122.622 44.7682 122.376 44.8576C122.08 44.9584 121.804 45.1077 121.559 45.2993V50.5631L119.873 50.5832ZM125.903 45.3314L125.568 44.3115C125.768 44.156 125.985 44.0215 126.213 43.91C126.504 43.7591 126.809 43.6367 127.124 43.5447C127.459 43.4463 127.807 43.3937 128.156 43.3881C128.589 43.3644 129.02 43.4486 129.41 43.633C129.753 43.8209 130.013 44.1269 130.141 44.4922C130.321 45.021 130.402 45.5771 130.381 46.1344V50.5912H128.728V46.295C128.735 45.9846 128.703 45.6745 128.634 45.3715C128.591 45.1645 128.466 44.9827 128.287 44.8656C128.056 44.7492 127.795 44.7018 127.536 44.7291C127.255 44.7415 126.979 44.8027 126.719 44.9098C126.43 45.0151 126.155 45.1568 125.903 45.3314ZM134.807 50.5832V43.4965H136.297V44.2473C136.507 44.0995 136.726 43.9654 136.954 43.8458C137.228 43.7076 137.515 43.596 137.812 43.5125C138.112 43.4225 138.424 43.3712 138.738 43.36C139.161 43.3309 139.583 43.4127 139.963 43.5968C140.295 43.7947 140.543 44.1043 140.661 44.4681C140.826 45.0013 140.901 45.5574 140.882 46.1143V50.5631H139.249V46.2669C139.256 45.9576 139.223 45.6486 139.151 45.3475C139.128 45.2436 139.086 45.1451 139.025 45.0576C138.964 44.9701 138.886 44.8953 138.795 44.8375C138.564 44.7211 138.303 44.6737 138.044 44.701C137.781 44.715 137.52 44.7678 137.273 44.8576C136.97 44.9563 136.687 45.1057 136.436 45.2993V50.5631L134.807 50.5832ZM140.837 45.3314L140.502 44.3115C140.703 44.1554 140.921 44.0208 141.151 43.91C141.441 43.7583 141.746 43.6359 142.061 43.5447C142.397 43.4459 142.744 43.3932 143.094 43.3881C143.525 43.3644 143.955 43.4487 144.343 43.633C144.679 43.8221 144.933 44.1246 145.058 44.4842C145.238 45.013 145.319 45.5691 145.299 46.1264V50.5832H143.641V46.287C143.647 45.9768 143.617 45.667 143.551 45.3635C143.508 45.1566 143.383 44.9749 143.204 44.8576C142.971 44.7416 142.709 44.6942 142.449 44.7211C142.168 44.7337 141.892 44.7948 141.633 44.9018C141.35 45.0111 141.082 45.1555 140.837 45.3314ZM150.259 50.6836C149.803 50.7114 149.346 50.6386 148.922 50.4704C148.499 50.3023 148.118 50.0432 147.81 49.7119C147.199 48.9485 146.894 47.9914 146.952 47.0218C146.943 46.3848 147.074 45.7533 147.336 45.1708C147.58 44.6435 147.972 44.1962 148.467 43.8819C149.014 43.5511 149.646 43.3824 150.288 43.3961C150.64 43.3861 150.992 43.435 151.329 43.5406C151.649 43.6458 151.945 43.8137 152.198 44.0345C152.461 44.2729 152.667 44.5647 152.802 44.8897C152.964 45.2812 153.045 45.7 153.043 46.1224V46.8371C153.042 47.0244 153.022 47.2113 152.986 47.3952H147.883L148.01 46.4275H151.496C151.518 46.1104 151.497 45.7918 151.435 45.48C151.385 45.2141 151.251 44.9707 151.051 44.7853C150.814 44.5949 150.511 44.5015 150.206 44.5243C149.897 44.5188 149.593 44.6102 149.34 44.7853C149.053 45.0151 148.849 45.3308 148.761 45.6847C148.606 46.2523 148.548 46.8411 148.589 47.4273C148.588 47.8481 148.695 48.2623 148.9 48.6318C149.07 48.9169 149.329 49.1406 149.638 49.2703C149.967 49.4035 150.32 49.4691 150.675 49.463C150.886 49.461 151.096 49.4433 151.304 49.4108C151.537 49.3789 151.767 49.3334 151.994 49.2743C152.171 49.2345 152.341 49.1711 152.5 49.0856L152.806 50.005C152.607 50.152 152.385 50.2672 152.149 50.3463C151.852 50.4491 151.548 50.5282 151.239 50.5832C150.916 50.6462 150.588 50.68 150.259 50.6836ZM157.093 50.6836C156.583 50.6899 156.082 50.5532 155.648 50.2893C155.214 50.0255 154.866 49.6456 154.644 49.194C154.354 48.5996 154.214 47.9455 154.235 47.2868C154.219 46.5806 154.375 45.8809 154.693 45.2471C154.974 44.682 155.415 44.2082 155.962 43.8819C156.541 43.5483 157.202 43.38 157.873 43.3961C158.25 43.3861 158.626 43.4362 158.987 43.5447C159.19 43.599 159.381 43.6859 159.555 43.8016L159.044 44.8335C158.901 44.7227 158.731 44.6495 158.55 44.6207C158.307 44.5778 158.059 44.5576 157.812 44.5605C157.476 44.5585 157.148 44.6581 156.873 44.8456C156.572 45.0659 156.34 45.3651 156.203 45.7088C156.022 46.1611 155.935 46.6443 155.946 47.1302C155.884 47.7394 156.027 48.3517 156.354 48.8728C156.499 49.0537 156.685 49.1975 156.899 49.2919C157.112 49.3863 157.345 49.4284 157.579 49.4148C157.875 49.4192 158.169 49.3617 158.44 49.2462C158.655 49.1606 158.858 49.0486 159.044 48.9129L159.289 49.7159C159.187 49.8203 159.049 49.9488 158.881 50.1175C158.673 50.2864 158.439 50.4219 158.187 50.519C157.837 50.6434 157.465 50.6993 157.093 50.6836ZM159.134 50.5832V49.6597L159.036 49.5995V44.6488L159.089 44.6127L159.036 43.0749V40.2201H160.669V50.5832H159.134ZM167.512 50.6836C167.015 50.6888 166.527 50.5611 166.099 50.3142C165.648 50.0444 165.288 49.6508 165.062 49.1819C164.773 48.5875 164.633 47.9334 164.654 47.2747C164.638 46.569 164.793 45.8697 165.107 45.235C165.39 44.6708 165.83 44.1974 166.377 43.8699C166.957 43.5366 167.62 43.3684 168.291 43.384C168.669 43.374 169.045 43.4242 169.406 43.5326C169.608 43.587 169.8 43.6738 169.973 43.7896L169.463 44.8215C169.318 44.71 169.147 44.6367 168.965 44.6087C168.722 44.5658 168.476 44.5456 168.23 44.5484C167.895 44.5464 167.567 44.6459 167.291 44.8335C166.989 45.0525 166.756 45.3521 166.622 45.6968C166.441 46.1491 166.353 46.6323 166.364 47.1181C166.304 47.7272 166.447 48.3391 166.773 48.8607C166.918 49.041 167.105 49.1844 167.318 49.2787C167.531 49.3731 167.764 49.4156 167.997 49.4028C168.293 49.4068 168.587 49.3493 168.859 49.2341C169.074 49.1486 169.277 49.0366 169.463 48.9009L169.708 49.7039C169.606 49.8083 169.463 49.9368 169.3 50.1054C169.09 50.2751 168.855 50.4107 168.602 50.5069C168.254 50.6357 167.883 50.6957 167.512 50.6836ZM169.553 50.5832V49.6597L169.455 49.5995V44.6488L169.508 44.6127L169.455 43.0749V40.2201H171.088V50.5832H169.553ZM176.085 50.6836C175.629 50.7111 175.172 50.6381 174.748 50.47C174.325 50.3019 173.944 50.0429 173.635 49.7119C173.025 48.9485 172.72 47.9914 172.778 47.0218C172.774 46.3828 172.913 45.7507 173.186 45.1708C173.428 44.6437 173.819 44.1963 174.313 43.8819C174.861 43.5505 175.495 43.3818 176.138 43.3961C176.489 43.3863 176.84 43.4352 177.175 43.5406C177.496 43.6458 177.791 43.8137 178.044 44.0345C178.307 44.2729 178.513 44.5647 178.649 44.8897C178.81 45.2812 178.891 45.7 178.889 46.1224V46.8371C178.89 47.0246 178.871 47.2117 178.832 47.3952H173.688L173.815 46.4275H177.309C177.336 46.1104 177.315 45.7913 177.248 45.48C177.2 45.2144 177.067 44.971 176.869 44.7853C176.63 44.5978 176.328 44.5047 176.023 44.5243C175.714 44.5175 175.41 44.609 175.158 44.7853C174.869 45.0146 174.664 45.3304 174.574 45.6847C174.419 46.2523 174.362 46.8411 174.403 47.4273C174.402 47.8481 174.509 48.2623 174.713 48.6318C174.884 48.9169 175.143 49.1406 175.452 49.2703C175.781 49.4028 176.133 49.4686 176.489 49.463C176.7 49.461 176.909 49.4433 177.118 49.4108C177.352 49.3787 177.583 49.3333 177.812 49.2743C177.987 49.2349 178.156 49.1711 178.314 49.0856L178.62 50.005C178.421 50.151 178.201 50.2661 177.967 50.3463C177.67 50.4487 177.365 50.5278 177.056 50.5832C176.736 50.6454 176.411 50.6792 176.085 50.6836ZM182.653 53.6347V52.3298C182.761 52.3623 182.872 52.3836 182.984 52.394C183.096 52.4109 183.209 52.4201 183.323 52.4222C183.549 52.4153 183.771 52.3691 183.98 52.2856C184.267 52.1672 184.513 51.9708 184.691 51.7195C184.963 51.3245 185.141 50.8744 185.213 50.4025L185.303 50.5832H184.605L182.045 43.4844H183.813L185.234 47.9011L185.83 49.9528H185.474L186.005 47.9011L187.197 43.4844H188.969L186.601 50.788C186.395 51.4974 186.05 52.1603 185.585 52.7393C185.251 53.1478 184.802 53.4507 184.295 53.6106C184.162 53.654 184.025 53.6849 183.886 53.703C183.752 53.7275 183.615 53.7411 183.478 53.7431C183.387 53.7476 183.296 53.7476 183.205 53.7431L182.862 53.703C182.789 53.6902 182.719 53.6672 182.653 53.6347ZM190.104 50.5832V43.4965H191.598V44.2593C191.81 44.1119 192.031 43.9778 192.259 43.8578C192.536 43.7209 192.824 43.608 193.121 43.5206C193.427 43.4274 193.744 43.3748 194.064 43.364C194.369 43.3275 194.678 43.362 194.966 43.4645C195.255 43.567 195.515 43.7347 195.726 43.9542C196.068 44.3666 196.24 45.0921 196.24 46.1304V50.5671H194.574V46.2709C194.609 45.844 194.527 45.4158 194.337 45.0303C194.178 44.7813 193.852 44.6729 193.35 44.697C193.183 44.7061 193.017 44.7317 192.856 44.7733C192.662 44.8263 192.472 44.8933 192.288 44.974C192.094 45.0639 191.911 45.1743 191.741 45.3033V50.5671L190.104 50.5832ZM201.029 53.7953C200.211 53.8387 199.397 53.6536 198.681 53.2613C198.415 53.0948 198.2 52.8615 198.056 52.5855C197.912 52.3095 197.846 52.0009 197.865 51.6914C197.859 51.4465 197.926 51.2052 198.057 50.9968C198.181 50.7932 198.346 50.6169 198.542 50.4788C198.727 50.3395 198.934 50.2311 199.155 50.1576L200.163 50.2821L199.877 50.527C199.763 50.6257 199.667 50.744 199.596 50.8763C199.509 51.0552 199.468 51.2524 199.477 51.4505C199.472 51.6914 199.526 51.9299 199.637 52.1451C199.75 52.3519 199.931 52.5149 200.151 52.6068C200.454 52.732 200.782 52.7896 201.11 52.7755C201.446 52.7787 201.781 52.7382 202.106 52.655C202.374 52.5952 202.623 52.4742 202.833 52.3017C202.921 52.2281 202.991 52.1362 203.038 52.0328C203.085 51.9293 203.109 51.8168 203.107 51.7034C203.113 51.4935 203.067 51.2853 202.972 51.0971C202.865 50.9067 202.688 50.7632 202.478 50.6956C202.133 50.5897 201.773 50.5435 201.412 50.5591H200.539C200.318 50.5591 200.13 50.5591 199.955 50.535C199.801 50.521 199.648 50.4969 199.498 50.4628C199.441 50.4498 199.387 50.4266 199.338 50.3945C199.289 50.364 199.236 50.341 199.179 50.3262C198.907 50.2508 198.672 50.0829 198.514 49.8525C198.393 49.6578 198.33 49.434 198.33 49.206C198.338 49.0293 198.383 48.8555 198.461 48.6961C198.553 48.509 198.677 48.3391 198.828 48.1942C199.007 48.0231 199.21 47.8796 199.432 47.7686L200.424 47.9814C200.265 48.0504 200.125 48.1565 200.016 48.2906C199.906 48.4154 199.843 48.5747 199.841 48.7403C199.829 48.8318 199.84 48.9247 199.874 49.0109C199.907 49.097 199.962 49.1737 200.033 49.2341C200.234 49.339 200.462 49.385 200.69 49.3666H201.984C202.446 49.3546 202.907 49.4112 203.352 49.5353C203.656 49.622 203.935 49.7774 204.168 49.989C204.356 50.1636 204.496 50.3816 204.576 50.6234C204.653 50.8569 204.691 51.1008 204.691 51.3461C204.697 51.7115 204.596 52.071 204.401 52.382C204.199 52.6959 203.927 52.9598 203.605 53.1529C203.243 53.3693 202.849 53.5278 202.437 53.6227C201.976 53.7362 201.504 53.7942 201.029 53.7953ZM200.963 48.1741C200.449 48.182 199.938 48.0835 199.465 47.885C199.048 47.7171 198.686 47.4392 198.42 47.082C198.165 46.7222 198.032 46.2921 198.04 45.8534C198.021 45.3745 198.154 44.9017 198.42 44.5003C198.679 44.1355 199.043 43.8557 199.465 43.6972C199.949 43.5125 200.464 43.4186 200.984 43.4202C201.504 43.4048 202.022 43.4865 202.511 43.6611C202.937 43.8137 203.31 44.0841 203.584 44.44C203.865 44.8313 204.009 45.3022 203.993 45.7811C204.015 46.2402 203.889 46.6945 203.631 47.0779C203.373 47.4613 202.998 47.7539 202.56 47.9131C202.05 48.1002 201.507 48.1862 200.963 48.1661V48.1741ZM200.988 47.1743C201.348 47.1932 201.704 47.0944 202 46.8933C202.143 46.7538 202.252 46.5839 202.318 46.3966C202.384 46.2094 202.405 46.0098 202.38 45.8132C202.409 45.4421 202.292 45.0742 202.053 44.7853C201.921 44.6609 201.764 44.5654 201.591 44.5051C201.419 44.4449 201.235 44.4214 201.053 44.436C200.812 44.4336 200.572 44.4702 200.343 44.5444C200.133 44.618 199.954 44.7595 199.837 44.9459C199.694 45.2321 199.631 45.5501 199.653 45.8681C199.675 46.186 199.782 46.4925 199.963 46.7568C200.087 46.903 200.244 47.0174 200.423 47.0902C200.601 47.163 200.795 47.1918 200.988 47.1743ZM203.16 44.689L202.784 44.0265C202.941 43.867 203.128 43.7401 203.335 43.6531C203.626 43.5162 203.944 43.4475 204.266 43.4523H205.029V44.689H203.16ZM205.854 50.1496L206.062 48.9691C206.19 49.0518 206.327 49.1193 206.471 49.1699C206.712 49.265 206.96 49.3413 207.214 49.3987C207.507 49.4673 207.806 49.5036 208.108 49.5071C208.428 49.5323 208.749 49.4639 209.03 49.3104C209.127 49.2516 209.207 49.1687 209.262 49.0701C209.316 48.9714 209.343 48.8605 209.341 48.7483C209.341 48.6638 209.325 48.5801 209.292 48.5021C209.259 48.4241 209.21 48.3535 209.149 48.2946C208.995 48.1483 208.817 48.0288 208.622 47.9412C208.402 47.8328 208.148 47.7204 207.871 47.6C207.493 47.4449 207.133 47.2511 206.797 47.0218C206.515 46.8326 206.28 46.5844 206.107 46.295C205.941 45.9921 205.861 45.6511 205.875 45.3073C205.868 44.9182 206.002 44.5394 206.254 44.2393C206.515 43.9449 206.852 43.7257 207.23 43.6049C207.669 43.4599 208.13 43.3893 208.593 43.3961C209.014 43.3879 209.435 43.4352 209.843 43.5366C210.085 43.5904 210.321 43.6712 210.545 43.7775L210.333 44.9821C210.217 44.8999 210.091 44.8337 209.957 44.7853C209.773 44.7107 209.581 44.6556 209.385 44.6207C209.17 44.5806 208.951 44.5604 208.732 44.5605C208.397 44.5408 208.062 44.6014 207.757 44.7372C207.66 44.7807 207.578 44.8502 207.521 44.9376C207.463 45.025 207.431 45.1267 207.43 45.231C207.42 45.3553 207.444 45.48 207.499 45.5922C207.554 45.7045 207.639 45.8001 207.744 45.8694C208.003 46.0361 208.276 46.1798 208.561 46.299C208.98 46.4882 209.389 46.6986 209.786 46.9294C210.103 47.1092 210.38 47.3495 210.602 47.6361C210.806 47.9208 210.911 48.2633 210.9 48.6118C210.919 48.9077 210.863 49.2035 210.738 49.4732C210.612 49.7428 210.421 49.9779 210.182 50.1576C209.605 50.5375 208.919 50.7221 208.226 50.6836C207.89 50.686 207.553 50.6591 207.222 50.6033C206.934 50.558 206.65 50.4908 206.373 50.4025C206.189 50.3415 206.015 50.2564 205.854 50.1496ZM214.656 50.6836C214.324 50.6912 213.995 50.631 213.688 50.5069C213.418 50.383 213.2 50.17 213.072 49.9047C212.907 49.5344 212.832 49.1318 212.851 48.7282V44.6488H211.941V43.7775C212.26 43.6892 212.509 43.6089 212.684 43.5406C212.778 43.5066 212.862 43.4531 212.933 43.3838C213.003 43.3145 213.058 43.231 213.092 43.1391C213.128 43.0428 213.169 42.9303 213.215 42.8018L213.362 42.3722L213.533 41.8703H214.525V43.4764H216.501V44.6408H214.505V47.9292C214.495 48.2625 214.517 48.5957 214.57 48.925C214.576 49.0056 214.601 49.0837 214.643 49.1533C214.685 49.2229 214.742 49.2822 214.811 49.3265C214.97 49.3903 215.141 49.4192 215.313 49.4108C215.45 49.4096 215.587 49.3963 215.721 49.3706C215.87 49.3433 216.017 49.3084 216.162 49.2662C216.276 49.2337 216.385 49.1896 216.489 49.1337L216.742 50.0572C216.582 50.1785 216.406 50.2784 216.22 50.3543C215.978 50.4535 215.728 50.5314 215.472 50.5872C215.205 50.6487 214.931 50.6811 214.656 50.6836ZM220.992 50.6836C220.536 50.7114 220.079 50.6386 219.655 50.4704C219.232 50.3023 218.851 50.0432 218.542 49.7119C217.932 48.9485 217.627 47.9914 217.685 47.0218C217.673 46.3845 217.804 45.7526 218.069 45.1708C218.313 44.6435 218.705 44.1962 219.2 43.8819C219.746 43.5503 220.379 43.3816 221.021 43.3961C221.373 43.3861 221.725 43.435 222.062 43.5406C222.382 43.6458 222.678 43.8137 222.931 44.0345C223.193 44.2729 223.4 44.5647 223.535 44.8897C223.697 45.2812 223.778 45.7 223.776 46.1224V46.8371C223.775 47.0244 223.755 47.2113 223.719 47.3952H218.624L218.755 46.4275H222.241C222.263 46.1104 222.243 45.7918 222.18 45.48C222.131 45.2141 221.996 44.9707 221.796 44.7853C221.559 44.5949 221.256 44.5015 220.951 44.5243C220.642 44.5188 220.339 44.6102 220.086 44.7853C219.798 45.0151 219.594 45.3308 219.506 45.6847C219.352 46.2524 219.292 46.8409 219.33 47.4273C219.333 47.8482 219.441 48.262 219.645 48.6318C219.814 48.9165 220.071 49.1403 220.38 49.2703C220.709 49.4028 221.061 49.4682 221.417 49.463C221.627 49.4611 221.837 49.4436 222.045 49.4108C222.279 49.3794 222.511 49.3338 222.739 49.2743C222.916 49.2337 223.086 49.1702 223.245 49.0856L223.552 50.005C223.352 50.1512 223.13 50.266 222.894 50.3463C222.598 50.4491 222.293 50.5282 221.984 50.5832C221.657 50.6471 221.325 50.6804 220.992 50.6836Z" fill="#08893A"/>
</g>
<defs>
<clipPath id="clip0_1_433">
<rect width="198" height="53" fill="white" transform="translate(63.0002 1)"/>
</clipPath>
</defs>
</svg>
