<svg width="1440" height="277" viewBox="0 0 1440 277" fill="none" xmlns="http://www.w3.org/2000/svg">
<g opacity="0.92">
<path fill-rule="evenodd" clip-rule="evenodd" d="M-19.4995 269.674L7.46881 270.965C34.4371 272.256 89.5996 274.837 143.536 276.128C198.699 277.419 252.635 277.419 307.798 275.16C361.734 272.901 416.897 268.384 470.834 267.093C524.77 265.802 579.933 267.738 633.869 268.706C689.032 269.674 742.968 269.674 798.131 269.029C852.068 268.384 907.23 267.093 961.167 267.415C1015.1 267.738 1070.27 269.674 1124.2 270.642C1179.36 271.61 1233.3 271.61 1288.46 269.997C1342.4 268.383 1397.56 265.157 1424.53 263.543L1451.5 261.93L1451.5 259.994L1424.53 259.994C1397.56 259.994 1342.4 259.994 1288.46 259.994C1233.3 259.994 1179.36 259.994 1124.2 259.994C1070.27 259.994 1015.1 259.994 961.167 259.994C907.23 259.994 852.068 259.994 798.131 259.994C742.968 259.994 689.032 259.994 633.869 259.994C579.933 259.994 524.77 259.994 470.834 259.994C416.897 259.994 361.734 259.994 307.798 259.994C252.635 259.994 198.699 259.994 143.536 259.994C89.5996 259.994 34.4371 259.994 7.46881 259.994L-19.4995 259.994L-19.4995 269.674Z" fill="#FFB502"/>
<path fill-rule="evenodd" clip-rule="evenodd" d="M1451.5 248.382L1426.98 247.414C1402.47 246.447 1353.43 244.511 1304.4 245.479C1255.37 246.447 1206.33 250.317 1157.3 250.317C1108.27 250.317 1059.23 246.447 1010.2 245.156C961.167 243.866 912.134 245.156 863.1 248.059C814.067 250.962 765.034 255.478 716 255.478C666.967 255.478 617.934 250.962 568.9 249.995C519.867 249.027 470.834 251.608 421.801 251.93C372.767 252.253 323.734 250.317 274.701 250.962C225.667 251.608 176.634 254.833 127.601 256.123C78.5674 257.414 29.5341 256.769 5.01746 256.446L-19.4993 256.123L-19.4993 259.994L5.01746 259.994C29.5341 259.994 78.5674 259.994 127.601 259.994C176.634 259.994 225.667 259.994 274.701 259.994C323.734 259.994 372.767 259.994 421.801 259.994C470.834 259.994 519.867 259.994 568.9 259.994C617.934 259.994 666.967 259.994 716 259.994C765.034 259.994 814.067 259.994 863.1 259.994C912.134 259.994 961.167 259.994 1010.2 259.994C1059.23 259.994 1108.27 259.994 1157.3 259.994C1206.33 259.994 1255.37 259.994 1304.4 259.994C1353.43 259.994 1402.47 259.994 1426.98 259.994L1451.5 259.994L1451.5 248.382Z" fill="#FFB502"/>
<path fill-rule="evenodd" clip-rule="evenodd" d="M-19.4905 212.631L16.0585 213.346C50.3816 214.062 120.254 215.493 190.126 214.777C261.224 214.062 331.096 211.2 400.968 210.484C470.84 209.769 540.712 211.2 610.584 214.062C680.456 216.924 751.554 221.217 821.426 221.575C891.298 221.933 961.17 218.355 1031.04 216.566C1100.91 214.777 1170.79 214.777 1241.88 215.493C1311.76 216.208 1381.63 217.639 1415.95 218.355L1451.5 219.071L1451.5 204.045L1415.95 204.045C1381.63 204.045 1311.76 204.045 1241.88 204.045C1170.79 204.045 1100.91 204.045 1031.04 204.045C961.17 204.045 891.298 204.045 821.426 204.045C751.554 204.045 680.456 204.045 610.584 204.045C540.712 204.045 470.84 204.045 400.968 204.045C331.096 204.045 261.224 204.045 190.126 204.045C120.254 204.045 50.3816 204.045 16.0585 204.045L-19.4905 204.045L-19.4905 212.631Z" fill="#FFD877"/>
<path fill-rule="evenodd" clip-rule="evenodd" d="M1451.49 194.544L1433.1 194.544C1413.49 194.544 1375.49 194.544 1338.71 195.336C1300.71 196.127 1262.71 197.711 1224.71 199.03C1187.94 200.35 1149.94 201.405 1111.94 199.822C1073.94 198.239 1037.16 194.016 999.16 192.697C961.16 191.377 923.159 192.961 885.159 194.808C848.384 196.655 810.383 198.766 772.383 199.558C734.382 200.35 697.607 199.822 659.607 199.03C621.606 198.239 583.606 197.183 546.831 195.863C508.83 194.544 470.83 192.961 432.829 192.697C394.828 192.433 358.054 193.488 320.053 195.072C282.052 196.655 244.052 198.766 207.277 199.03C169.276 199.294 131.276 197.711 93.2753 195.864C56.5005 194.016 18.4999 191.905 -1.11328 190.849L-19.5006 189.794L-19.5006 204.044L-1.11328 204.044C18.4999 204.044 56.5005 204.044 93.2753 204.044C131.276 204.044 169.276 204.044 207.277 204.044C244.052 204.044 282.052 204.044 320.053 204.044C358.054 204.044 394.828 204.044 432.829 204.044C470.83 204.044 508.83 204.044 546.831 204.044C583.606 204.044 621.606 204.044 659.607 204.044C697.607 204.044 734.382 204.044 772.383 204.044C810.383 204.044 848.384 204.044 885.159 204.044C923.159 204.044 961.16 204.044 999.16 204.044C1037.16 204.044 1073.94 204.044 1111.94 204.044C1149.94 204.044 1187.94 204.044 1224.71 204.044C1262.71 204.044 1300.71 204.044 1338.71 204.044C1375.49 204.044 1413.49 204.044 1433.1 204.044L1451.49 204.044L1451.49 194.544Z" fill="#FFD877"/>
<path fill-rule="evenodd" clip-rule="evenodd" d="M1451.5 138.328L1424.53 137.975C1397.56 137.622 1342.4 136.916 1288.46 138.328C1233.3 139.739 1179.37 143.267 1124.2 143.267C1070.27 143.267 1015.1 139.739 961.167 139.386C907.23 139.033 852.068 141.856 798.131 143.62C742.969 145.384 689.032 146.09 633.869 144.679C579.933 143.267 524.77 139.739 470.834 139.739C416.897 139.739 361.734 143.267 307.798 143.267C252.635 143.267 198.699 139.739 143.536 137.622C89.5996 135.505 34.4371 134.799 7.46875 134.447L-19.4995 134.094L-19.4995 148.913L7.46875 148.913C34.4371 148.913 89.5996 148.913 143.536 148.913C198.699 148.913 252.635 148.913 307.798 148.913C361.734 148.913 416.897 148.913 470.834 148.913C524.77 148.913 579.933 148.913 633.869 148.913C689.032 148.913 742.969 148.913 798.131 148.913C852.068 148.913 907.23 148.913 961.167 148.913C1015.1 148.913 1070.27 148.913 1124.2 148.913C1179.37 148.913 1233.3 148.913 1288.46 148.912C1342.4 148.912 1397.56 148.912 1424.53 148.912L1451.5 148.912L1451.5 138.328Z" fill="#F279BC"/>
<path fill-rule="evenodd" clip-rule="evenodd" d="M1451.5 157.355L1415.95 158.06C1381.63 158.766 1311.76 160.177 1241.88 159.472C1170.78 158.766 1100.91 155.943 1031.04 155.238C961.167 154.532 891.294 155.943 821.422 158.766C751.549 161.589 680.451 165.822 610.579 166.175C540.706 166.528 470.834 163 400.961 161.236C331.089 159.472 261.216 159.472 190.118 160.177C120.245 160.883 50.3729 162.294 16.0497 163L-19.4995 163.706L-19.4995 148.887L16.0497 148.887C50.3729 148.887 120.245 148.887 190.118 148.887C261.216 148.887 331.089 148.887 400.961 148.887C470.834 148.887 540.706 148.887 610.579 148.887C680.451 148.887 751.549 148.887 821.422 148.887C891.294 148.887 961.167 148.887 1031.04 148.887C1100.91 148.887 1170.78 148.887 1241.88 148.887C1311.76 148.887 1381.63 148.887 1415.95 148.887L1451.5 148.887L1451.5 157.355Z" fill="#F279BC"/>
<path fill-rule="evenodd" clip-rule="evenodd" d="M-19.4998 85.782L7.46853 84.4913C34.4368 83.2006 89.5992 80.6191 143.536 79.3284C198.698 78.0377 252.635 78.0377 307.797 80.2964C361.734 82.5552 416.896 87.0728 470.833 88.3635C524.769 89.6542 579.932 87.7181 633.868 86.7501C689.031 85.782 742.967 85.782 798.13 86.4274C852.066 87.0727 907.229 88.3635 961.165 88.0408C1015.1 87.7181 1070.26 85.782 1124.2 84.814C1179.36 83.8459 1233.3 83.8459 1288.46 85.4593C1342.4 87.0727 1397.56 90.2995 1424.53 91.913L1451.5 93.5264L1451.5 95.4625L1424.53 95.4625C1397.56 95.4625 1342.4 95.4625 1288.46 95.4625C1233.3 95.4625 1179.36 95.4625 1124.2 95.4625C1070.26 95.4625 1015.1 95.4625 961.165 95.4625C907.229 95.4625 852.066 95.4625 798.13 95.4625C742.967 95.4625 689.031 95.4625 633.868 95.4625C579.932 95.4625 524.769 95.4625 470.833 95.4625C416.896 95.4625 361.734 95.4625 307.797 95.4625C252.635 95.4625 198.698 95.4625 143.536 95.4625C89.5992 95.4625 34.4368 95.4625 7.46853 95.4625L-19.4998 95.4625L-19.4998 85.782Z" fill="#F24130"/>
<path fill-rule="evenodd" clip-rule="evenodd" d="M1451.5 107.074L1426.98 108.042C1402.47 109.01 1353.43 110.945 1304.4 109.977C1255.37 109.01 1206.33 105.139 1157.3 105.139C1108.27 105.139 1059.23 109.01 1010.2 110.3C961.168 111.59 912.134 110.3 863.101 107.397C814.068 104.494 765.035 99.978 716.001 99.978C666.968 99.978 617.935 104.494 568.902 105.462C519.868 106.429 470.835 103.849 421.802 103.526C372.769 103.204 323.735 105.139 274.702 104.494C225.669 103.849 176.636 100.623 127.602 99.3329C78.5691 98.0427 29.5359 98.6878 5.01929 99.0104L-19.4974 99.3329L-19.4974 95.4622L5.01929 95.4622C29.5359 95.4622 78.5691 95.4622 127.602 95.4622C176.636 95.4622 225.669 95.4622 274.702 95.4622C323.735 95.4622 372.769 95.4622 421.802 95.4622C470.835 95.4622 519.868 95.4622 568.902 95.4622C617.935 95.4622 666.968 95.4622 716.001 95.4622C765.035 95.4622 814.068 95.4622 863.101 95.4622C912.134 95.4622 961.168 95.4622 1010.2 95.4622C1059.23 95.4622 1108.27 95.4622 1157.3 95.4622C1206.33 95.4622 1255.37 95.4622 1304.4 95.4622C1353.43 95.4622 1402.47 95.4622 1426.98 95.4622L1451.5 95.4622L1451.5 107.074Z" fill="#F24130"/>
<path fill-rule="evenodd" clip-rule="evenodd" d="M-19.499 32.5617L16.0501 31.8462C50.3734 31.1307 120.246 29.6997 190.118 30.4152C261.217 31.1307 331.089 33.9928 400.962 34.7083C470.834 35.4238 540.706 33.9928 610.579 31.1307C680.451 28.2686 751.55 23.9755 821.422 23.6177C891.294 23.26 961.167 26.8376 1031.04 28.6264C1100.91 30.4151 1170.78 30.4151 1241.88 29.6996C1311.76 28.9841 1381.63 27.5531 1415.95 26.8375L1451.5 26.122L1451.5 41.1479L1415.95 41.1479C1381.63 41.1479 1311.76 41.1479 1241.88 41.1479C1170.78 41.1479 1100.91 41.1479 1031.04 41.1479C961.167 41.1479 891.294 41.1479 821.422 41.1479C751.55 41.1479 680.451 41.1479 610.579 41.1479C540.706 41.1479 470.834 41.1479 400.962 41.1479C331.089 41.1479 261.217 41.1479 190.118 41.1479C120.246 41.1479 50.3734 41.1479 16.0501 41.148L-19.499 41.148L-19.499 32.5617Z" fill="#41C16F"/>
<path fill-rule="evenodd" clip-rule="evenodd" d="M1451.5 50.6497L1433.11 50.6497C1413.5 50.6497 1375.5 50.6497 1338.72 49.858C1300.72 49.0663 1262.72 47.4828 1224.72 46.1633C1187.95 44.8438 1149.94 43.7882 1111.94 45.3716C1073.94 46.955 1037.17 51.1775 999.167 52.497C961.166 53.8165 923.165 52.2331 885.164 50.3858C848.389 48.5385 810.389 46.4272 772.388 45.6355C734.387 44.8438 697.612 45.3716 659.611 46.1633C621.61 46.9551 583.61 48.0107 546.835 49.3302C508.834 50.6497 470.833 52.2331 432.832 52.497C394.831 52.7609 358.057 51.7053 320.056 50.1219C282.055 48.5385 244.054 46.4273 207.279 46.1634C169.278 45.8995 131.277 47.4829 93.2766 49.3302C56.5017 51.1775 18.5009 53.2887 -1.11243 54.3443L-19.4999 55.4L-19.4999 41.1492L-1.11243 41.1492C18.5009 41.1492 56.5017 41.1492 93.2766 41.1492C131.277 41.1492 169.278 41.1492 207.279 41.1492C244.054 41.1492 282.055 41.1492 320.056 41.1492C358.057 41.1492 394.831 41.1492 432.832 41.1492C470.833 41.1492 508.834 41.1492 546.835 41.1492C583.61 41.1492 621.61 41.1492 659.611 41.1492C697.612 41.1492 734.387 41.1492 772.388 41.1492C810.389 41.1492 848.389 41.1492 885.164 41.1492C923.165 41.1492 961.166 41.1492 999.167 41.1492C1037.17 41.1492 1073.94 41.1492 1111.94 41.1492C1149.94 41.1492 1187.95 41.1492 1224.72 41.1492C1262.72 41.1492 1300.72 41.1492 1338.72 41.1492C1375.5 41.1492 1413.5 41.1492 1433.11 41.1492L1451.5 41.1492L1451.5 50.6497Z" fill="#41C16F"/>
</g>
</svg>
