<svg width="102" height="55" viewBox="0 0 102 55" fill="none" xmlns="http://www.w3.org/2000/svg">
<rect x="26.1332" width="49.731" height="55" fill="#C3D9EC"/>
<ellipse cx="74.5865" cy="27.4975" rx="27.4133" ry="27.4975" fill="#C3D9EC"/>
<path d="M81.6786 11.0566C87.243 13.1107 91.5854 18.0048 92.6531 24.2842C94.2441 33.6418 87.9609 42.5327 78.6189 44.1419C71.3382 45.3959 64.3496 41.8563 60.8663 35.8043C64.0377 37.5942 67.8213 38.3443 71.692 37.6777C80.634 36.1375 86.6483 27.628 85.1254 18.6712C84.6325 15.7721 83.4095 13.1824 81.6786 11.0566Z" fill="#FFFCEB"/>
<ellipse cx="27.4133" cy="27.4975" rx="27.4133" ry="27.4975" fill="#FFB502"/>
<ellipse cx="27.0897" cy="27.8197" rx="11.7952" ry="11.8314" fill="#FFEAB0"/>
<path d="M26.223 9.18056C26.6076 8.51236 27.5718 8.51236 27.9564 9.18056L29.816 12.4114C30.1997 13.0781 29.7185 13.9103 28.9493 13.9103H25.2301C24.4609 13.9103 23.9797 13.0781 24.3634 12.4114L26.223 9.18056Z" fill="#FFEAB0"/>
<path d="M45.6791 26.9547C46.3443 27.3399 46.3443 28.3002 45.6791 28.6854L42.4582 30.5508C41.7915 30.9368 40.957 30.4558 40.957 29.6854V25.9547C40.957 25.1843 41.7915 24.7033 42.4582 25.0894L45.6791 26.9547Z" fill="#FFEAB0"/>
<path d="M8.50029 26.9547C7.83515 27.3399 7.83515 28.3002 8.50029 28.6854L11.7213 30.5508C12.3879 30.9368 13.2224 30.4558 13.2224 29.6854V25.9547C13.2224 25.1843 12.3879 24.7033 11.7213 25.0894L8.50029 26.9547Z" fill="#FFEAB0"/>
<path d="M13.1422 14.3996C12.3799 14.3021 11.7986 15.0683 12.0956 15.7792L13.5329 19.2201C13.83 19.9315 14.7834 20.054 15.2488 19.4405L17.5009 16.4716C17.9662 15.8581 17.5943 14.9691 16.8316 14.8715L13.1422 14.3996Z" fill="#FFEAB0"/>
<path d="M41.1755 14.3996C41.9378 14.3021 42.519 15.0683 42.222 15.7792L40.7848 19.2201C40.4877 19.9315 39.5342 20.054 39.0689 19.4405L36.8167 16.4716C36.3514 15.8581 36.7233 14.9691 37.4861 14.8715L41.1755 14.3996Z" fill="#FFEAB0"/>
<path d="M13.7797 41.3797C13.0175 41.4772 12.4362 40.711 12.7332 40.0001L14.1704 36.5592C14.4676 35.8478 15.421 35.7253 15.8863 36.3388L18.1385 39.3077C18.6038 39.9212 18.2319 40.8102 17.4691 40.9078L13.7797 41.3797Z" fill="#FFEAB0"/>
<path d="M41.8131 41.3797C42.5754 41.4772 43.1566 40.711 42.8596 40.0001L41.4224 36.5592C41.1252 35.8478 40.1718 35.7253 39.7065 36.3388L37.4543 39.3077C36.989 39.9212 37.3609 40.8102 38.1237 40.9078L41.8131 41.3797Z" fill="#FFEAB0"/>
<path d="M26.223 46.4601C26.6076 47.1283 27.5718 47.1283 27.9564 46.4601L29.816 43.2292C30.1997 42.5625 29.7185 41.7304 28.9493 41.7304H25.2301C24.4609 41.7304 23.9797 42.5625 24.3634 43.2292L26.223 46.4601Z" fill="#FFEAB0"/>
</svg>
