<svg width="1440" height="466" viewBox="0 0 1440 466" fill="none" xmlns="http://www.w3.org/2000/svg">
<path fill-rule="evenodd" clip-rule="evenodd" d="M1524.5 118.729L1459.07 162.037C1393.63 205.346 1262.77 291.963 1131.9 263.091C1001.03 234.218 870.167 153.998 739.3 125.126C608.433 96.2534 425.367 176.474 294.5 162.037C163.633 147.601 84.9667 -25.6328 -45.9 3.23956C-176.767 32.1119 -307.633 205.346 -373.067 291.963L-438.5 378.58V465.197H-373.067C-307.633 465.197 -176.767 465.197 -45.9 465.197C84.9667 465.197 215.833 465.197 346.7 465.197C477.567 465.197 608.433 465.197 739.3 465.197C870.167 465.197 1001.03 465.197 1131.9 465.197C1262.77 465.197 1393.63 465.197 1459.07 465.197H1524.5V118.729Z" fill="#4B94F0"/>
</svg>
