<svg width="54" height="53" viewBox="0 0 54 53" fill="none" xmlns="http://www.w3.org/2000/svg">
<ellipse cx="27.0004" cy="26.5" rx="27" ry="26.5" fill="#F279BC"/>
<path d="M27.0003 12.293C35.0645 12.293 41.5225 18.697 41.5228 26.499C41.5228 34.3012 35.0647 40.7061 27.0003 40.7061C18.936 40.7059 12.4788 34.3011 12.4788 26.499C12.4791 18.6971 18.9362 12.2931 27.0003 12.293Z" fill="#F279BC" stroke="#FBDBDF" stroke-width="5"/>
<rect width="11.3705" height="11.9391" transform="matrix(0.769771 0.63832 -0.652397 0.757878 34.5031 26.21)" fill="#F279BC"/>
<path d="M38.7907 36.6724C38.2051 37.0444 37.4296 36.7347 37.275 36.0671L35.3271 27.6578C35.145 26.8721 35.9355 26.2018 36.6892 26.5028L46.0138 30.2266C46.7675 30.5276 46.8565 31.5492 46.1673 31.987L38.7907 36.6724Z" fill="#FBDBDF"/>
</svg>
